<svg xmlns="http://www.w3.org/2000/svg" viewBox="0 0 143.15 37.1"><defs><style>.cls-1{fill:#002f67;}.cls-2{fill:#231f20;}.cls-3{fill:#45b649;}.cls-4{fill:#fcb116;}.cls-5{fill:#ed1d24;}.cls-6{fill:#fddfcf;}</style></defs><g id="Layer_2" data-name="Layer 2"><g id="Layer_1-2" data-name="Layer 1"><path class="cls-1" d="M25.33,35.73a5.29,5.29,0,0,0-.67-.18,8.62,8.62,0,0,1-3-1.22c-1-.68-2.13-1.31-3.21-1.93a1.57,1.57,0,0,0-.74-.19H3.26a1.15,1.15,0,0,1-1.19-.64,2.26,2.26,0,0,1-.1-.78C2,22.4,2,14,2,5.61,2,4.06,2.44,4,3.54,4.05H23.06c.85,0,1.14.29,1.14,1.15q0,6.54,0,13.06a1.38,1.38,0,0,0,.33.95c.54.63.52.63,1.33.4a.34.34,0,0,0,.29-.4V3.08A3,3,0,0,0,23.07,0H3A3,3,0,0,0,0,3.07V33.81a3.05,3.05,0,0,0,.11.85,2.85,2.85,0,0,0,3,2.12H23.4a2.85,2.85,0,0,0,1.93-1"/><path class="cls-2" d="M18.66,27.5c-1.21,0-2,.23-2.47,1.12a.84.84,0,0,0,.46,1.29,25.44,25.44,0,0,1,5.17,2.7,8.3,8.3,0,0,0,2.59,1.3,17.1,17.1,0,0,1,6.32,2.79,2.15,2.15,0,0,0,2.59-.06c1.65-1.3,3.28-2.63,4.91-4a1.1,1.1,0,0,0,.29-1.54c-.22-.42-.45-.85-.65-1.28a13,13,0,0,1-.8-2.72A22.12,22.12,0,0,0,35,21.74,1.33,1.33,0,0,0,34,21a17.94,17.94,0,0,0-9.11.48.38.38,0,0,1-.49-.13c-.62-.8-1.25-1.59-1.88-2.38-.89-1.11-1.77-2.24-2.68-3.35a1.36,1.36,0,0,0-1.64-.33,1.31,1.31,0,0,0-.5,2q2.49,4.51,5,9a3.48,3.48,0,0,1,.54,2c-.05.56-.34.76-.86.55s-1.12-.48-1.68-.73a5.64,5.64,0,0,0-2.05-.65"/><path class="cls-2" d="M15.53,18.47h0V11.69c0-.51-.17-.69-.69-.69H11.78c-.44,0-.61.17-.61.62V25.21c0,.44.17.62.61.63q1.61,0,3.21,0c.41,0,.54-.17.54-.59Z"/><path class="cls-1" d="M25.33,35.73a2.85,2.85,0,0,1-1.93,1H3.13a2.85,2.85,0,0,1-3-2.12A3.05,3.05,0,0,1,0,33.81V3.07A3,3,0,0,1,3,0h20a3,3,0,0,1,3.07,3.07V19.21a.34.34,0,0,1-.29.4c-.81.23-.79.23-1.33-.4a1.38,1.38,0,0,1-.33-.95q0-6.53,0-13.06c0-.86-.29-1.15-1.14-1.15H3.54C2.44,4,2,4.06,2,5.61,2,14,2,22.4,2,30.79a2.26,2.26,0,0,0,.1.78,1.15,1.15,0,0,0,1.19.64H17.73a1.57,1.57,0,0,1,.74.19c1.08.62,2.17,1.25,3.21,1.93a8.62,8.62,0,0,0,3,1.22,5.29,5.29,0,0,1,.67.18"/><path class="cls-3" d="M15.53,18.47v6.78c0,.42-.13.58-.54.59q-1.61,0-3.21,0c-.44,0-.61-.19-.61-.63V11.62c0-.45.17-.62.61-.62h3.06c.52,0,.69.18.69.69v6.78Z"/><path class="cls-4" d="M5.7,21.73V18.31c0-.53.14-.66.67-.67H9.43c.5,0,.66.15.66.65v6.85c0,.56-.16.7-.71.71h-3c-.54,0-.68-.15-.68-.69V21.73"/><path class="cls-1" d="M38.11,8.68a4,4,0,0,0-1.78-.38,3.73,3.73,0,0,0-2,.5,3.41,3.41,0,0,0-1.31,1.4,4.59,4.59,0,0,0-.47,2.11,4.32,4.32,0,0,0,.48,2.06,3.45,3.45,0,0,0,1.33,1.4,3.89,3.89,0,0,0,2,.5,4,4,0,0,0,2-.45,3.8,3.8,0,0,0,1.4-1.39L41.44,16a5.4,5.4,0,0,1-2.19,1.81,7.1,7.1,0,0,1-3,.61,6.7,6.7,0,0,1-3.29-.79,5.64,5.64,0,0,1-2.24-2.2,6.25,6.25,0,0,1-.78-3.18,6.12,6.12,0,0,1,.81-3.16A5.47,5.47,0,0,1,33,6.94a7,7,0,0,1,3.33-.77,6.08,6.08,0,0,1,4.75,1.92L39.44,9.73a3.46,3.46,0,0,0-1.33-1.05"/><path class="cls-1" d="M44.83,17.64a5.52,5.52,0,0,1-2.24-2.15,6.36,6.36,0,0,1-.8-3.2,6.36,6.36,0,0,1,.8-3.2,5.52,5.52,0,0,1,2.24-2.15,7.48,7.48,0,0,1,6.61,0,5.63,5.63,0,0,1,2.23,2.15,6.35,6.35,0,0,1,.79,3.2,6.35,6.35,0,0,1-.79,3.2,5.63,5.63,0,0,1-2.23,2.15,7.48,7.48,0,0,1-6.61,0M50,15.77a3.45,3.45,0,0,0,1.3-1.4,4.49,4.49,0,0,0,.47-2.08,4.49,4.49,0,0,0-.47-2.08A3.35,3.35,0,0,0,50,8.8a3.56,3.56,0,0,0-1.91-.5,3.61,3.61,0,0,0-1.91.5,3.35,3.35,0,0,0-1.3,1.41,4.61,4.61,0,0,0-.46,2.08,4.61,4.61,0,0,0,.46,2.08,3.45,3.45,0,0,0,1.3,1.4,3.7,3.7,0,0,0,1.91.5,3.65,3.65,0,0,0,1.91-.5"/><polygon class="cls-1" points="58.66 10.7 58.71 18.25 56.12 18.25 56.12 6.33 57.73 6.33 65.01 13.88 64.94 6.33 67.52 6.33 67.52 18.25 65.93 18.25 58.66 10.7"/><polygon class="cls-1" points="72.33 18.25 72.33 8.46 68.76 8.46 68.76 6.33 78.48 6.33 78.48 8.46 74.91 8.46 74.91 18.25 72.33 18.25"/><path class="cls-1" d="M78.47,17.93A1.6,1.6,0,0,1,78,16.8a1.6,1.6,0,0,1,3.19,0,1.58,1.58,0,0,1-.46,1.13,1.57,1.57,0,0,1-2.26,0"/><path class="cls-1" d="M82.6,10a4.65,4.65,0,0,1,.93-1.92,4.42,4.42,0,0,1,1.8-1.28,9,9,0,0,1,5.73,0,4.56,4.56,0,0,1,1.8,1.28A4.91,4.91,0,0,1,93.79,10a10.59,10.59,0,0,1,.26,2.38,10.38,10.38,0,0,1-.26,2.35,4.78,4.78,0,0,1-.93,1.92,4.6,4.6,0,0,1-1.8,1.3,9,9,0,0,1-5.73,0,4.46,4.46,0,0,1-1.8-1.3,4.53,4.53,0,0,1-.93-1.92,9.83,9.83,0,0,1-.27-2.35A10,10,0,0,1,82.6,10M86.45,8.6a2.39,2.39,0,0,0-1,.92A3.33,3.33,0,0,0,85,10.84a11.68,11.68,0,0,0,0,3.05,3.27,3.27,0,0,0,.44,1.32,2.39,2.39,0,0,0,1,.92,4.55,4.55,0,0,0,3.5,0,2.56,2.56,0,0,0,1-.92,3.61,3.61,0,0,0,.44-1.32,13,13,0,0,0,0-3.05,3.67,3.67,0,0,0-.44-1.32,2.56,2.56,0,0,0-1-.92,4.55,4.55,0,0,0-3.5,0"/><polygon class="cls-1" points="95.64 18.25 95.64 6.48 98.8 6.48 103.53 15.09 103.59 15.09 103.59 6.48 106.07 6.48 106.07 18.25 102.91 18.25 98.18 9.63 98.12 9.63 98.12 18.25 95.64 18.25"/><path class="cls-1" d="M110.31,18a3.3,3.3,0,0,1-1.29-.73,3.38,3.38,0,0,1-.89-1.31,5.59,5.59,0,0,1-.32-2V6.48h2.48v7.34a2.78,2.78,0,0,0,.16,1,2.23,2.23,0,0,0,.48.76,2.1,2.1,0,0,0,.76.5,2.48,2.48,0,0,0,1,.19h3.23v2h-4.08a5.23,5.23,0,0,1-1.55-.23"/><rect class="cls-1" x="117.38" y="6.48" width="2.48" height="11.76"/><polygon class="cls-1" points="121.6 18.25 121.6 6.48 124.76 6.48 129.49 15.09 129.55 15.09 129.55 6.48 132.03 6.48 132.03 18.25 128.87 18.25 124.14 9.63 124.08 9.63 124.08 18.25 121.6 18.25"/><path class="cls-1" d="M143,13.33h-6.62a4,4,0,0,0,.87,2.23,2.6,2.6,0,0,0,1.94.68h4v2h-4.67a4.45,4.45,0,0,1-3.63-1.51,6.79,6.79,0,0,1-1.24-4.37A6.77,6.77,0,0,1,134.85,8a4.43,4.43,0,0,1,3.63-1.52h4.67v2h-4a5.12,5.12,0,0,0-.85.07,2,2,0,0,0-.84.36,2.6,2.6,0,0,0-.69.87,5.29,5.29,0,0,0-.43,1.6H143Z"/><path class="cls-5" d="M21.27,20v5.37c0,.32-.13.46-.54.46q-1.61,0-3.21,0c-.44,0-.61-.15-.61-.5V14.59c0-.35.17-.49.61-.5h3.07c.51,0,.68.15.68.56,0,1.78,0,3.57,0,5.36Z"/><path class="cls-6" d="M18.66,27.5a5.64,5.64,0,0,1,2.05.65c.56.25,1.11.5,1.68.73s.81,0,.86-.55a3.48,3.48,0,0,0-.54-2q-2.52-4.5-5-9a1.31,1.31,0,0,1,.5-2,1.36,1.36,0,0,1,1.64.33c.91,1.11,1.79,2.24,2.68,3.35.63.79,1.26,1.58,1.88,2.38a.38.38,0,0,0,.49.13A17.94,17.94,0,0,1,34,21a1.33,1.33,0,0,1,1,.76,22.12,22.12,0,0,1,2.08,5.4,13,13,0,0,0,.8,2.72c.2.43.43.86.65,1.28a1.1,1.1,0,0,1-.29,1.54c-1.63,1.33-3.26,2.66-4.91,4a2.15,2.15,0,0,1-2.59.06,17.1,17.1,0,0,0-6.32-2.79,8.3,8.3,0,0,1-2.59-1.3,25.44,25.44,0,0,0-5.17-2.7.84.84,0,0,1-.46-1.29c.46-.89,1.26-1.12,2.47-1.12"/><path class="cls-1" d="M45.92,25.77a2.6,2.6,0,0,0,1.75.63c.8,0,1.21-.3,1.22-.88s-.26-.76-.8-.86l-.82-.12a2,2,0,0,1-1.21-.6,1.74,1.74,0,0,1-.42-1.18,1.79,1.79,0,0,1,.53-1.34,2.07,2.07,0,0,1,1.47-.52,3.42,3.42,0,0,1,2,.66l-.52.79a2.78,2.78,0,0,0-1.53-.49,1.18,1.18,0,0,0-.71.22.84.84,0,0,0-.31.69.7.7,0,0,0,.21.5,1.08,1.08,0,0,0,.66.31c.17,0,.4.07.69.1a1.93,1.93,0,0,1,1.28.65,1.84,1.84,0,0,1,.41,1.18c0,1.22-.75,1.83-2.16,1.85a3.44,3.44,0,0,1-2.35-.87Z"/><path class="cls-1" d="M51.09,21H52v.9h-.88Zm0,1.83H52v4.52h-.88Z"/><path class="cls-1" d="M54.05,25.39a1.1,1.1,0,0,0,.3.83,1,1,0,0,0,.74.29,1.31,1.31,0,0,0,1-.44l.64.56a2,2,0,0,1-1.58.73,2.18,2.18,0,0,1-.67-.1,1.37,1.37,0,0,1-.32-.16,1.27,1.27,0,0,1-.31-.2,1.67,1.67,0,0,1-.45-.71,2.77,2.77,0,0,1-.19-1.13A3.18,3.18,0,0,1,53.33,24a1.9,1.9,0,0,1,.42-.72,1.46,1.46,0,0,1,.59-.38,1.8,1.8,0,0,1,.63-.12,1.77,1.77,0,0,1,1.27.51,1.88,1.88,0,0,1,.54,1.4v.75Zm1.85-.75a1.14,1.14,0,0,0-.28-.8.86.86,0,0,0-.65-.26.89.89,0,0,0-.65.26,1.23,1.23,0,0,0-.27.8Z"/><path class="cls-1" d="M58,22.79h.88v.48h0a1.46,1.46,0,0,1,1.18-.54,1.65,1.65,0,0,1,.76.16,2.33,2.33,0,0,1,.52.43,1.76,1.76,0,0,1,1.42-.59,1.52,1.52,0,0,1,1,.4,1.49,1.49,0,0,1,.48,1.17v3H63.4v-2.7a1,1,0,0,0-.25-.72,1,1,0,0,0-1.31,0,.92.92,0,0,0-.26.72v2.7H60.7v-2.7a1,1,0,0,0-.26-.72.88.88,0,0,0-.65-.25.85.85,0,0,0-.65.25.93.93,0,0,0-.27.72v2.7H58Z"/><path class="cls-1" d="M65.81,22.79h.88v.47a1.47,1.47,0,0,1,1.13-.53,1.34,1.34,0,0,1,1.18.59,1.15,1.15,0,0,1,.24.56,6.38,6.38,0,0,1,.07,1.17,6.19,6.19,0,0,1-.07,1.15,1.15,1.15,0,0,1-.24.57,1.3,1.3,0,0,1-.48.42,1.39,1.39,0,0,1-.7.17,1.16,1.16,0,0,1-.6-.15,1.78,1.78,0,0,1-.53-.38v2.31h-.88Zm1.74,3.67a.82.82,0,0,0,.5-.13.68.68,0,0,0,.26-.32,2.12,2.12,0,0,0,.11-.45c0-.17,0-.34,0-.51s0-.35,0-.53a1.85,1.85,0,0,0-.11-.45.66.66,0,0,0-.26-.33,1,1,0,0,0-.5-.1.78.78,0,0,0-.46.12.75.75,0,0,0-.27.34,1.89,1.89,0,0,0-.11.44c0,.17,0,.34,0,.51s0,.32,0,.48a1.94,1.94,0,0,0,.11.46.67.67,0,0,0,.27.33.72.72,0,0,0,.46.14"/><path class="cls-1" d="M70.62,22.79h.88v.48h0a1.39,1.39,0,0,1,1.14-.54,1.35,1.35,0,0,1,.92.35l-.64.78a.92.92,0,0,0-.58-.22.81.81,0,0,0-.58.22.92.92,0,0,0-.28.72v2.73h-.88Z"/><path class="cls-1" d="M74.77,25.39a1.06,1.06,0,0,0,.31.83,1,1,0,0,0,.74.29,1.31,1.31,0,0,0,1-.44l.64.56a2,2,0,0,1-1.58.73,2.24,2.24,0,0,1-.68-.1,1.59,1.59,0,0,1-.32-.16,1.49,1.49,0,0,1-.31-.2,1.89,1.89,0,0,1-.45-.71,3,3,0,0,1-.19-1.13A3.16,3.16,0,0,1,74.06,24a1.9,1.9,0,0,1,.42-.72,1.4,1.4,0,0,1,.59-.38,1.76,1.76,0,0,1,.63-.12,1.79,1.79,0,0,1,1.27.51,1.91,1.91,0,0,1,.54,1.4v.75Zm1.86-.75a1.24,1.24,0,0,0-.28-.8.89.89,0,0,0-.65-.26.87.87,0,0,0-.65.26,1.24,1.24,0,0,0-.28.8Z"/><path class="cls-1" d="M83.37,26.91h0a.72.72,0,0,1-.37.34,1.92,1.92,0,0,1-.71.11,1.57,1.57,0,0,1-1.13-.4,1.39,1.39,0,0,1,0-1.92,1.42,1.42,0,0,1,1.06-.4h1.22v-.48c0-.39-.29-.59-.9-.58a1.76,1.76,0,0,0-.52.07.7.7,0,0,0-.31.28L81,23.39a1.69,1.69,0,0,1,1.48-.66,2.27,2.27,0,0,1,1.32.32,1.33,1.33,0,0,1,.5,1.17v3.09h-.88Zm0-1.52H82.31c-.51,0-.76.19-.76.55a.5.5,0,0,0,.2.39.91.91,0,0,0,.63.18,1.5,1.5,0,0,0,.78-.14c.14-.09.21-.31.21-.65Z"/><path class="cls-1" d="M85.71,21h.88v5.19c0,.2.11.31.33.31h.31v.85h-.39a1.22,1.22,0,0,1-.8-.25,1,1,0,0,1-.33-.84Z"/><path class="cls-1" d="M93.13,26.84a1.47,1.47,0,0,1-1.14.52,1.28,1.28,0,0,1-.67-.17,1.36,1.36,0,0,1-.5-.42,1.15,1.15,0,0,1-.24-.58A6.19,6.19,0,0,1,90.51,25a6.32,6.32,0,0,1,.07-1.16,1.15,1.15,0,0,1,.24-.56A1.34,1.34,0,0,1,92,22.73a1.46,1.46,0,0,1,.63.14,2.31,2.31,0,0,1,.51.39V21H94v6.36h-.88Zm-.87-3.2a.89.89,0,0,0-.47.1.67.67,0,0,0-.27.33,1.89,1.89,0,0,0-.11.44c0,.18,0,.35,0,.53s0,.34,0,.51a2.07,2.07,0,0,0,.11.46.7.7,0,0,0,.27.32.8.8,0,0,0,.47.13.82.82,0,0,0,.5-.14A.64.64,0,0,0,93,26a1.94,1.94,0,0,0,.11-.46c0-.16,0-.33,0-.49s0-.34,0-.5a2.12,2.12,0,0,0-.11-.45.73.73,0,0,0-.25-.33.9.9,0,0,0-.5-.12"/><path class="cls-1" d="M95.91,20.9h1.16l-1.23,1.3h-.72Zm-.56,1.89h.88v4.52h-.88Z"/><path class="cls-1" d="M99.94,26.91h0a.71.71,0,0,1-.38.34,1.83,1.83,0,0,1-.7.11,1.56,1.56,0,0,1-1.13-.4,1.26,1.26,0,0,1-.41-1,1.3,1.3,0,0,1,.36-.94,1.41,1.41,0,0,1,1.06-.4h1.22v-.48c0-.39-.29-.59-.9-.58a1.76,1.76,0,0,0-.52.07.7.7,0,0,0-.31.28l-.69-.54A1.69,1.69,0,0,1,99,22.73a2.27,2.27,0,0,1,1.32.32,1.35,1.35,0,0,1,.5,1.17v3.09h-.88Zm0-1.52H98.88c-.51,0-.76.19-.76.55a.5.5,0,0,0,.2.39.91.91,0,0,0,.63.18,1.5,1.5,0,0,0,.78-.14c.14-.09.21-.31.21-.65Z"/></g></g></svg>