<svg xmlns="http://www.w3.org/2000/svg" viewBox="0 0 143.16 37.1"><defs><style>.cls-1{fill:#231f20;}.cls-2{fill:#fff;}.cls-3{fill:#45b649;}.cls-4{fill:#fcb116;}.cls-5{fill:#ed1d24;}.cls-6{fill:#fddfcf;}</style></defs><title>logo-white</title><g id="Layer_2" data-name="Layer 2"><g id="Layer_1-2" data-name="Layer 1"><path class="cls-1" d="M290-1445.76c-.28-.08-.47-.14-.67-.18a8.28,8.28,0,0,1-3-1.22c-1.05-.68-2.13-1.31-3.21-1.93a1.64,1.64,0,0,0-.75-.19H267.93a1.13,1.13,0,0,1-1.18-.64,2,2,0,0,1-.11-.78q0-12.58,0-25.18c0-1.55.48-1.56,1.59-1.56h19.51c.85,0,1.14.29,1.14,1.15,0,4.36,0,8.71,0,13.06a1.36,1.36,0,0,0,.33,1c.54.63.53.63,1.34.4a.35.35,0,0,0,.29-.4c0-5.38,0-10.75,0-16.13a3,3,0,0,0-3.07-3.07h-20a2.94,2.94,0,0,0-3,3.06q0,15.38,0,30.74a3.05,3.05,0,0,0,.11.85,2.83,2.83,0,0,0,3,2.13h19.77a4.1,4.1,0,0,0,.5,0,2.87,2.87,0,0,0,1.94-1" transform="translate(-264.67 1481.49)"/><path class="cls-1" d="M283.34-1454c-1.22,0-2,.23-2.47,1.12a.84.84,0,0,0,.46,1.29,25.37,25.37,0,0,1,5.16,2.7,8.14,8.14,0,0,0,2.6,1.3,16.91,16.91,0,0,1,6.31,2.8,2.19,2.19,0,0,0,2.6-.06c1.64-1.31,3.28-2.64,4.91-4a1.11,1.11,0,0,0,.29-1.54c-.23-.42-.46-.85-.66-1.28a12.44,12.44,0,0,1-.79-2.72,22.14,22.14,0,0,0-2.09-5.4,1.34,1.34,0,0,0-1-.76,18,18,0,0,0-9.12.48.37.37,0,0,1-.48-.13c-.62-.8-1.25-1.59-1.88-2.38-.9-1.11-1.78-2.24-2.69-3.34a1.34,1.34,0,0,0-1.64-.34,1.31,1.31,0,0,0-.5,2q2.49,4.51,5,9a3.48,3.48,0,0,1,.54,2c-.05.56-.33.76-.85.55s-1.13-.48-1.69-.73a5.79,5.79,0,0,0-2-.65" transform="translate(-264.67 1481.49)"/><path class="cls-1" d="M280.21-1463h0v-6.77c0-.52-.18-.7-.69-.7h-3.07c-.43,0-.61.18-.61.62v13.59c0,.44.17.63.61.63h3.21c.41,0,.55-.17.55-.59V-1463" transform="translate(-264.67 1481.49)"/><path class="cls-2" d="M290-1445.76a2.87,2.87,0,0,1-1.94,1,4.1,4.1,0,0,1-.5,0H267.8a2.83,2.83,0,0,1-3-2.13,3.05,3.05,0,0,1-.11-.85q0-15.37,0-30.74a2.94,2.94,0,0,1,3-3.06h20a3,3,0,0,1,3.07,3.07c0,5.38,0,10.75,0,16.13a.35.35,0,0,1-.29.4c-.81.23-.8.23-1.34-.4a1.36,1.36,0,0,1-.33-1c0-4.35,0-8.7,0-13.06,0-.86-.29-1.15-1.14-1.15H268.22c-1.11,0-1.6,0-1.59,1.56q0,12.6,0,25.18a2,2,0,0,0,.11.78,1.13,1.13,0,0,0,1.18.64H282.4a1.64,1.64,0,0,1,.75.19c1.08.62,2.16,1.25,3.21,1.93a8.28,8.28,0,0,0,3,1.22c.2,0,.39.1.67.18" transform="translate(-264.67 1481.49)"/><path class="cls-3" d="M280.21-1463v6.78c0,.42-.14.58-.55.59h-3.21c-.44,0-.61-.19-.61-.63v-13.59c0-.44.18-.62.61-.62h3.07c.51,0,.69.18.69.7v6.77Z" transform="translate(-264.67 1481.49)"/><path class="cls-4" d="M270.37-1459.76v-3.42c0-.53.14-.66.67-.67h3.07c.5,0,.65.15.65.65,0,2.28,0,4.57,0,6.85,0,.56-.16.71-.71.71h-3c-.54,0-.69-.15-.69-.69v-3.43" transform="translate(-264.67 1481.49)"/><path class="cls-2" d="M302.79-1472.81a4.09,4.09,0,0,0-1.78-.38,3.82,3.82,0,0,0-2,.5,3.33,3.33,0,0,0-1.32,1.41,4.51,4.51,0,0,0-.46,2.1,4.32,4.32,0,0,0,.47,2.06,3.41,3.41,0,0,0,1.34,1.4,3.82,3.82,0,0,0,1.95.5,4,4,0,0,0,2-.45,3.87,3.87,0,0,0,1.4-1.39l1.72,1.56a5.4,5.4,0,0,1-2.19,1.81,7.1,7.1,0,0,1-3,.61,6.7,6.7,0,0,1-3.29-.79,5.71,5.71,0,0,1-2.24-2.2,6.25,6.25,0,0,1-.78-3.18,6.12,6.12,0,0,1,.81-3.16,5.59,5.59,0,0,1,2.25-2.14,7.06,7.06,0,0,1,3.34-.77,6.06,6.06,0,0,1,4.74,1.92l-1.61,1.64a3.43,3.43,0,0,0-1.32-1" transform="translate(-264.67 1481.49)"/><path class="cls-2" d="M309.5-1463.85a5.4,5.4,0,0,1-2.24-2.15,6.35,6.35,0,0,1-.79-3.2,6.35,6.35,0,0,1,.79-3.2,5.52,5.52,0,0,1,2.24-2.15,6.94,6.94,0,0,1,3.31-.77,6.93,6.93,0,0,1,3.3.77,5.56,5.56,0,0,1,2.23,2.15,6.36,6.36,0,0,1,.8,3.2,6.36,6.36,0,0,1-.8,3.2,5.43,5.43,0,0,1-2.23,2.15,6.93,6.93,0,0,1-3.3.77,6.94,6.94,0,0,1-3.31-.77m5.22-1.87a3.43,3.43,0,0,0,1.29-1.4,4.49,4.49,0,0,0,.47-2.08,4.49,4.49,0,0,0-.47-2.08,3.39,3.39,0,0,0-1.29-1.41,3.58,3.58,0,0,0-1.91-.5,3.62,3.62,0,0,0-1.92.5,3.27,3.27,0,0,0-1.29,1.41,4.49,4.49,0,0,0-.46,2.08,4.49,4.49,0,0,0,.46,2.08,3.3,3.3,0,0,0,1.29,1.4,3.71,3.71,0,0,0,1.92.5,3.68,3.68,0,0,0,1.91-.5" transform="translate(-264.67 1481.49)"/><polygon class="cls-2" points="58.66 10.7 58.71 18.25 56.12 18.25 56.12 6.33 57.73 6.33 65.01 13.88 64.94 6.33 67.52 6.33 67.52 18.25 65.93 18.25 58.66 10.7"/><polygon class="cls-2" points="72.33 18.25 72.33 8.46 68.76 8.46 68.76 6.33 78.48 6.33 78.48 8.46 74.91 8.46 74.91 18.25 72.33 18.25"/><path class="cls-2" d="M343.15-1463.56a1.57,1.57,0,0,1-.48-1.13,1.53,1.53,0,0,1,.47-1.12,1.54,1.54,0,0,1,1.13-.46,1.52,1.52,0,0,1,1.12.46,1.49,1.49,0,0,1,.47,1.12,1.54,1.54,0,0,1-.46,1.13,1.49,1.49,0,0,1-1.13.48,1.51,1.51,0,0,1-1.12-.48" transform="translate(-264.67 1481.49)"/><path class="cls-2" d="M347.27-1471.5a4.91,4.91,0,0,1,.93-1.92,4.42,4.42,0,0,1,1.8-1.28,7.62,7.62,0,0,1,2.87-.47,7.6,7.6,0,0,1,2.86.47,4.42,4.42,0,0,1,1.8,1.28,4.91,4.91,0,0,1,.93,1.92,10,10,0,0,1,.26,2.38,10,10,0,0,1-.26,2.36,4.91,4.91,0,0,1-.93,1.92,4.54,4.54,0,0,1-1.8,1.29,7.41,7.41,0,0,1-2.86.47,7.43,7.43,0,0,1-2.87-.47,4.54,4.54,0,0,1-1.8-1.29,4.91,4.91,0,0,1-.93-1.92,10.54,10.54,0,0,1-.26-2.36,10.59,10.59,0,0,1,.26-2.38m3.85-1.39a2.52,2.52,0,0,0-1,.92,3.55,3.55,0,0,0-.44,1.32,10.83,10.83,0,0,0-.1,1.53,10.78,10.78,0,0,0,.1,1.52,3.43,3.43,0,0,0,.44,1.32,2.52,2.52,0,0,0,1,.92,3.75,3.75,0,0,0,1.75.35,3.72,3.72,0,0,0,1.75-.35,2.43,2.43,0,0,0,1-.92,3.43,3.43,0,0,0,.44-1.32,10.78,10.78,0,0,0,.1-1.52,10.83,10.83,0,0,0-.1-1.53,3.55,3.55,0,0,0-.44-1.32,2.43,2.43,0,0,0-1-.92,3.72,3.72,0,0,0-1.75-.35,3.75,3.75,0,0,0-1.75.35" transform="translate(-264.67 1481.49)"/><polygon class="cls-2" points="95.64 18.25 95.64 6.49 98.8 6.49 103.53 15.09 103.59 15.09 103.59 6.49 106.07 6.49 106.07 18.25 102.91 18.25 98.18 9.63 98.12 9.63 98.12 18.25 95.64 18.25"/><path class="cls-2" d="M375-1463.47a3.41,3.41,0,0,1-1.29-.72,3.48,3.48,0,0,1-.88-1.32,5.33,5.33,0,0,1-.33-2V-1475H375v7.33a2.78,2.78,0,0,0,.17,1,2.37,2.37,0,0,0,.47.76,2.12,2.12,0,0,0,.76.51,2.73,2.73,0,0,0,1,.18h3.24v2h-4.09a5.28,5.28,0,0,1-1.55-.23" transform="translate(-264.67 1481.49)"/><rect class="cls-2" x="117.38" y="6.49" width="2.48" height="11.76"/><polygon class="cls-2" points="121.6 18.25 121.6 6.49 124.76 6.49 129.49 15.09 129.55 15.09 129.55 6.49 132.03 6.49 132.03 18.25 128.87 18.25 124.14 9.63 124.08 9.63 124.08 18.25 121.6 18.25"/><path class="cls-2" d="M407.65-1468.16H401a4,4,0,0,0,.87,2.23,2.57,2.57,0,0,0,1.94.68h4v2h-4.67a4.44,4.44,0,0,1-3.63-1.51,6.73,6.73,0,0,1-1.24-4.37,6.71,6.71,0,0,1,1.24-4.37,4.41,4.41,0,0,1,3.63-1.51h4.67v2h-4a5.24,5.24,0,0,0-.86.07,2,2,0,0,0-.84.37,2.34,2.34,0,0,0-.68.86,5,5,0,0,0-.43,1.6h6.62Z" transform="translate(-264.67 1481.49)"/><path class="cls-5" d="M286-1461.48v5.37c0,.33-.13.46-.55.46h-3.21c-.43,0-.61-.15-.61-.5,0-3.58,0-7.17,0-10.75,0-.35.17-.49.6-.5h3.07c.51,0,.69.15.69.56v5.36Z" transform="translate(-264.67 1481.49)"/><path class="cls-6" d="M283.34-1454a5.79,5.79,0,0,1,2,.65c.56.25,1.12.51,1.69.73s.8,0,.85-.55a3.48,3.48,0,0,0-.54-2q-2.52-4.5-5-9a1.31,1.31,0,0,1,.5-2,1.34,1.34,0,0,1,1.64.34c.91,1.1,1.79,2.23,2.69,3.34.63.79,1.26,1.58,1.88,2.38a.37.37,0,0,0,.48.13,18,18,0,0,1,9.12-.48,1.34,1.34,0,0,1,1,.76,22.14,22.14,0,0,1,2.09,5.4,12.44,12.44,0,0,0,.79,2.72c.2.43.43.86.66,1.28a1.11,1.11,0,0,1-.29,1.54c-1.63,1.33-3.27,2.66-4.91,4a2.19,2.19,0,0,1-2.6.06,16.91,16.91,0,0,0-6.31-2.8,8.14,8.14,0,0,1-2.6-1.3,25.37,25.37,0,0,0-5.16-2.7.84.84,0,0,1-.46-1.29c.45-.89,1.25-1.12,2.47-1.12" transform="translate(-264.67 1481.49)"/><path class="cls-2" d="M310.6-1455.72a2.59,2.59,0,0,0,1.74.63c.8,0,1.21-.3,1.22-.88s-.26-.76-.8-.86l-.82-.11a2,2,0,0,1-1.2-.61,1.68,1.68,0,0,1-.43-1.18,1.76,1.76,0,0,1,.54-1.34,2,2,0,0,1,1.47-.52,3.39,3.39,0,0,1,2,.66l-.52.79a2.77,2.77,0,0,0-1.52-.49,1.19,1.19,0,0,0-.72.22.87.87,0,0,0-.31.69.7.7,0,0,0,.21.5,1.2,1.2,0,0,0,.66.32l.69.1a1.86,1.86,0,0,1,1.28.64,1.79,1.79,0,0,1,.41,1.18c0,1.22-.75,1.84-2.16,1.85A3.48,3.48,0,0,1,310-1455Z" transform="translate(-264.67 1481.49)"/><path class="cls-2" d="M315.77-1460.53h.88v.9h-.88Zm0,1.83h.88v4.52h-.88Z" transform="translate(-264.67 1481.49)"/><path class="cls-2" d="M318.72-1456.1a1.08,1.08,0,0,0,.3.83,1,1,0,0,0,.75.29,1.32,1.32,0,0,0,1-.44l.63.56a2,2,0,0,1-1.57.73,2.2,2.2,0,0,1-.68-.1,1.87,1.87,0,0,1-.32-.15,2.11,2.11,0,0,1-.31-.21,1.89,1.89,0,0,1-.45-.71,2.74,2.74,0,0,1-.19-1.13,3.43,3.43,0,0,1,.16-1.11,2,2,0,0,1,.43-.72,1.54,1.54,0,0,1,.58-.38,1.85,1.85,0,0,1,.64-.12,1.84,1.84,0,0,1,1.27.51,1.87,1.87,0,0,1,.53,1.4v.75Zm1.85-.75a1.18,1.18,0,0,0-.27-.8.89.89,0,0,0-.65-.26.9.9,0,0,0-.66.26,1.29,1.29,0,0,0-.27.8Z" transform="translate(-264.67 1481.49)"/><path class="cls-2" d="M322.66-1458.7h.88v.48h0a1.46,1.46,0,0,1,1.18-.54,1.75,1.75,0,0,1,.76.16,2.33,2.33,0,0,1,.52.43,1.8,1.8,0,0,1,1.43-.59,1.51,1.51,0,0,1,1,.4,1.49,1.49,0,0,1,.48,1.17v3h-.88v-2.7a1,1,0,0,0-.25-.72.88.88,0,0,0-.65-.25.89.89,0,0,0-.66.25,1,1,0,0,0-.26.72v2.7h-.88v-2.7a1,1,0,0,0-.25-.72.89.89,0,0,0-.66-.25.88.88,0,0,0-.65.25.93.93,0,0,0-.27.72v2.7h-.88Z" transform="translate(-264.67 1481.49)"/><path class="cls-2" d="M330.48-1458.7h.88v.47a1.48,1.48,0,0,1,1.13-.53,1.34,1.34,0,0,1,1.18.59,1.25,1.25,0,0,1,.25.57,7.55,7.55,0,0,1,.06,1.16,7.58,7.58,0,0,1-.06,1.15,1.25,1.25,0,0,1-.25.57,1.22,1.22,0,0,1-.48.42,1.37,1.37,0,0,1-.7.17,1.21,1.21,0,0,1-.6-.15,1.92,1.92,0,0,1-.53-.38v2.31h-.88Zm1.75,3.67a.79.79,0,0,0,.49-.13.68.68,0,0,0,.26-.32,1.65,1.65,0,0,0,.11-.45c0-.17,0-.34,0-.51s0-.35,0-.53a1.49,1.49,0,0,0-.11-.45.59.59,0,0,0-.26-.32.87.87,0,0,0-.49-.11.8.8,0,0,0-.47.12.82.82,0,0,0-.27.34,1.89,1.89,0,0,0-.1.44,4.36,4.36,0,0,0,0,.51,3.87,3.87,0,0,0,0,.48,2,2,0,0,0,.1.46.82.82,0,0,0,.27.34.8.8,0,0,0,.47.13" transform="translate(-264.67 1481.49)"/><path class="cls-2" d="M335.29-1458.7h.88v.48h0a1.39,1.39,0,0,1,1.14-.54,1.4,1.4,0,0,1,.92.35l-.64.78a.92.92,0,0,0-.58-.22.82.82,0,0,0-.58.22.92.92,0,0,0-.28.72v2.73h-.88Z" transform="translate(-264.67 1481.49)"/><path class="cls-2" d="M339.45-1456.1a1.08,1.08,0,0,0,.3.83,1,1,0,0,0,.74.29,1.31,1.31,0,0,0,1-.44l.64.56a2,2,0,0,1-1.58.73,2.18,2.18,0,0,1-.67-.1,1.87,1.87,0,0,1-.32-.15,1.69,1.69,0,0,1-.31-.21,1.67,1.67,0,0,1-.45-.71,2.74,2.74,0,0,1-.19-1.13,3.18,3.18,0,0,1,.16-1.11,2,2,0,0,1,.42-.72,1.57,1.57,0,0,1,.59-.38,1.76,1.76,0,0,1,.63-.12,1.82,1.82,0,0,1,1.27.51,1.88,1.88,0,0,1,.54,1.4v.75Zm1.85-.75a1.14,1.14,0,0,0-.28-.8.86.86,0,0,0-.65-.26.89.89,0,0,0-.65.26,1.23,1.23,0,0,0-.27.8Z" transform="translate(-264.67 1481.49)"/><path class="cls-2" d="M348.05-1454.58h0a.75.75,0,0,1-.38.34,1.68,1.68,0,0,1-.7.11,1.54,1.54,0,0,1-1.13-.4,1.26,1.26,0,0,1-.42-1,1.3,1.3,0,0,1,.36-.94,1.43,1.43,0,0,1,1.07-.4h1.22v-.47c0-.4-.3-.6-.9-.59a1.71,1.71,0,0,0-.52.07.65.65,0,0,0-.31.28l-.7-.54a1.7,1.7,0,0,1,1.48-.66,2.27,2.27,0,0,1,1.32.32,1.33,1.33,0,0,1,.5,1.17v3.09h-.87Zm0-1.52H347c-.51,0-.77.2-.76.55a.47.47,0,0,0,.2.39.88.88,0,0,0,.63.18,1.4,1.4,0,0,0,.78-.14c.14-.09.21-.31.21-.65Z" transform="translate(-264.67 1481.49)"/><path class="cls-2" d="M350.39-1460.53h.87v5.19c0,.2.12.31.34.31h.3v.85h-.39a1.23,1.23,0,0,1-.8-.25,1,1,0,0,1-.32-.84Z" transform="translate(-264.67 1481.49)"/><path class="cls-2" d="M357.8-1454.65a1.46,1.46,0,0,1-1.13.52,1.32,1.32,0,0,1-.68-.17,1.33,1.33,0,0,1-.49-.42,1.07,1.07,0,0,1-.24-.58,6,6,0,0,1-.08-1.15,6.1,6.1,0,0,1,.08-1.16,1.07,1.07,0,0,1,.24-.56,1.31,1.31,0,0,1,1.17-.59,1.44,1.44,0,0,1,.62.14,2.31,2.31,0,0,1,.51.39v-2.3h.88v6.35h-.88Zm-.86-3.2a.81.81,0,0,0-.48.11.66.66,0,0,0-.27.32,2,2,0,0,0-.1.45,4.41,4.41,0,0,0,0,.52,4.24,4.24,0,0,0,0,.51,2.07,2.07,0,0,0,.1.46.76.76,0,0,0,.27.32.74.74,0,0,0,.48.13.86.86,0,0,0,.49-.13.65.65,0,0,0,.25-.34,1.55,1.55,0,0,0,.11-.46c0-.16,0-.33,0-.49s0-.34,0-.5a1.5,1.5,0,0,0-.11-.44.65.65,0,0,0-.25-.34.87.87,0,0,0-.49-.12" transform="translate(-264.67 1481.49)"/><path class="cls-2" d="M360.58-1460.59h1.16l-1.23,1.3h-.72Zm-.56,1.89h.88v4.52H360Z" transform="translate(-264.67 1481.49)"/><path class="cls-2" d="M364.61-1454.58h0a.75.75,0,0,1-.38.34,1.68,1.68,0,0,1-.7.11,1.54,1.54,0,0,1-1.13-.4,1.26,1.26,0,0,1-.42-1,1.3,1.3,0,0,1,.36-.94,1.43,1.43,0,0,1,1.07-.4h1.21v-.47c0-.4-.29-.6-.89-.59a1.71,1.71,0,0,0-.52.07.67.67,0,0,0-.32.28l-.69-.54a1.7,1.7,0,0,1,1.48-.66,2.27,2.27,0,0,1,1.32.32,1.33,1.33,0,0,1,.5,1.17v3.09h-.88Zm0-1.52h-1.05c-.52,0-.77.2-.76.55a.47.47,0,0,0,.2.39.88.88,0,0,0,.63.18,1.42,1.42,0,0,0,.78-.14c.14-.09.2-.31.2-.65Z" transform="translate(-264.67 1481.49)"/></g></g></svg>