<svg width="0" height="0" class="hidden">
  <symbol xmlns="http://www.w3.org/2000/svg" viewBox="0 0 27.63 25.37" id="board">
    <path d="M20.75 1.51a.18.18 0 01-.12-.12.19.19 0 010-.08.19.19 0 000 .08.18.18 0 00.12.12l2.65 1.08zM.51 9.76h.37v-2a.87.87 0 01.86-.86h16.61l.09-.21.27-.69h-17A1.74 1.74 0 000 7.71v2.71a.48.48 0 01.07-.23.44.44 0 01.44-.43M25.9 5.75h-3.54l-.36.89h3.9a.85.85 0 01.85.86v2.26h.44a.44.44 0 01.44.44V7.5a1.75 1.75 0 00-1.73-1.75"></path>
    <path d="M27.19 9.76h-6.45L22 6.64l.36-.88 1.33-3.29a.22.22 0 01-.12.11.15.15 0 01-.09 0h-.08l-2.65-1.07a.19.19 0 01-.12-.11.29.29 0 010-.09.24.24 0 010-.08L18.8 5.76l-.09.24-.27.67-.09.21-1.17 2.88H.51a.44.44 0 00-.44.43v13.44a1.74 1.74 0 001.74 1.74H25.9a1.74 1.74 0 001.73-1.74V10.2a.44.44 0 00-.44-.44m-.44 13.87a.85.85 0 01-.85.86H1.81a.85.85 0 01-.81-.86v-13h15.82L15 15.24l.41.16L21 1.6l2.25.9-5.64 13.81v.05l.41.16 2.36-5.84h6.37zM1.63 8a.25.25 0 00.25.24h1.89A.24.24 0 004 8a.24.24 0 00-.24-.25H1.88a.25.25 0 00-.25.25"></path>
    <path d="M24.12 8.2H26a.25.25 0 100-.49h-1.88a.25.25 0 100 .49m-3.51-6.89a.29.29 0 000 .09.19.19 0 00.12.11l2.67 1.08h.08a.15.15 0 00.09 0 .22.22 0 00.12-.11l.16-.4a1.54 1.54 0 00-1-1.92 1.84 1.84 0 00-1.22-.08 1.29 1.29 0 00-.84.75l-.16.4a.24.24 0 000 .08M21.2 1a.84.84 0 01.56-.5 1.33 1.33 0 01.92.05 1.11 1.11 0 01.76 1.35l-.08.2-2.24-.91zm-6.56 17.78l.13.07h.1L14.73 20a.07.07 0 00.12 0l.65-.91h.07l.15.07 2.34-2.72H18l-.41-.16-2.24-.91-.41-.16h-.1zm1-.05l-.51-.22.15-2.63 2.09.85z"></path>
  </symbol>
  <symbol xmlns="http://www.w3.org/2000/svg" viewBox="0 0 19.49 24.69" id="calc">
    <path d="M1.89 0A1.89 1.89 0 000 1.89V22.8a1.89 1.89 0 001.89 1.89H17.6a1.89 1.89 0 001.89-1.89V1.89A1.89 1.89 0 0017.6 0zm16.93 1.89V22.8A1.23 1.23 0 0117.6 24H1.89a1.23 1.23 0 01-1.22-1.2V1.89A1.22 1.22 0 011.89.67H17.6a1.22 1.22 0 011.22 1.22"></path>
    <path d="M17.18 2.87H2.33a.46.46 0 00-.45.46v4.58a.46.46 0 00.45.46h14.85a.47.47 0 00.46-.46V3.33a.47.47 0 00-.46-.46m-.45 4.58H2.79V3.78h13.94zm-.81 9.32h-2.84a.46.46 0 00-.46.46v5.09a.45.45 0 00.46.46h2.84a.46.46 0 00.46-.46v-5.09a.47.47 0 00-.46-.46m-.46 5.1h-1.93v-4.18h1.93zm-1.78-9.78h1.63a1 1 0 00.92-1.09 1 1 0 00-.92-1h-1.63a1 1 0 00-.91 1 1 1 0 00.91 1.07m0-1.68h1.63c.25 0 .46.28.46.61s-.21.61-.46.61h-1.63c-.25 0-.46-.28-.46-.61s.21-.61.46-.61m0 5.11h1.63a1.08 1.08 0 000-2.13h-1.63a1.08 1.08 0 000 2.13m0-1.67h1.63c.25 0 .46.28.46.61s-.21.61-.46.61h-1.63c-.25 0-.46-.28-.46-.61s.21-.61.46-.61M10.69 10H9.05a1 1 0 00-.91 1 1 1 0 00.91 1.07h1.64A1 1 0 0011.6 11a1 1 0 00-.91-1m0 1.67H9.05c-.25 0-.45-.28-.45-.61s.2-.61.45-.61h1.64c.24 0 .45.28.45.61s-.21.61-.45.61m0 1.64H9.05a1.08 1.08 0 000 2.14h1.64a1.08 1.08 0 000-2.14m0 1.68H9.05c-.25 0-.45-.28-.45-.61s.2-.61.45-.61h1.64c.24 0 .45.28.45.61s-.21.61-.45.61M6.06 10H4.42a1 1 0 00-.91 1 1 1 0 00.91 1.07h1.64A1 1 0 007 11a1 1 0 00-.94-1m0 1.67H4.42c-.24 0-.45-.28-.45-.61s.21-.61.45-.61h1.64c.25 0 .45.28.45.61s-.2.61-.45.61m0 1.64H4.42a1.08 1.08 0 000 2.14h1.64a1.08 1.08 0 000-2.14m0 1.68H4.42c-.24 0-.45-.28-.45-.61s.21-.61.45-.61h1.64c.25 0 .45.28.45.61s-.2.61-.45.61m0 1.68H4.42a1.08 1.08 0 000 2.13h1.64a1.08 1.08 0 000-2.13m0 1.68H4.42c-.24 0-.45-.28-.45-.61s.21-.61.45-.61h1.64c.25 0 .45.28.45.61s-.2.61-.45.61m0 1.65H4.42a1.08 1.08 0 000 2.13h1.64a1.08 1.08 0 000-2.13m0 1.67H4.42c-.24 0-.45-.28-.45-.61s.21-.61.45-.61h1.64c.25 0 .45.28.45.61s-.2.61-.45.61m4.52-5H8.94a1.08 1.08 0 000 2.13h1.64a1.08 1.08 0 000-2.13m0 1.68H8.94c-.25 0-.45-.28-.45-.61s.2-.61.45-.61h1.64c.24 0 .45.28.45.61s-.21.61-.45.61m0 1.65H8.94a1.08 1.08 0 000 2.13h1.64a1.08 1.08 0 000-2.13m0 1.67H8.94c-.25 0-.45-.28-.45-.61s.2-.61.45-.61h1.64c.24 0 .45.28.45.61s-.21.61-.45.61"></path>
  </symbol>
  <symbol xmlns="http://www.w3.org/2000/svg" viewBox="0 0 22.38 22.34" id="clock">
    <path d="M9.64.07a11.21 11.21 0 103.19 0 15.87 15.87 0 00-3.19 0m1.55 1.09a10 10 0 11-10 10 10 10 0 0110-10"></path>
    <path d="M11.19 19.44a8.29 8.29 0 10-8.29-8.29 8.3 8.3 0 008.29 8.29m7.33-8.29a7.33 7.33 0 11-7.33-7.33 7.35 7.35 0 017.33 7.33"></path>
    <path d="M11.19 10.26a.9.9 0 11-.9.89.89.89 0 01.9-.89m-7.01.89a.24.24 0 00.24.24h1.77a.24.24 0 000-.48H4.42a.24.24 0 00-.24.24m12.1.24h1.77a.24.24 0 00.24-.24.24.24 0 00-.24-.24h-1.77a.23.23 0 00-.23.24.23.23 0 00.23.24m-5.04-5.05a.23.23 0 00.23-.24V4.34a.24.24 0 10-.47 0V6.1a.23.23 0 00.24.24m0 9.66a.24.24 0 00-.24.24V18a.24.24 0 10.47 0v-1.8a.23.23 0 00-.23-.24"></path>
    <path d="M14.49 6.87a.22.22 0 00-.33 0L11.05 11a.23.23 0 000 .33.25.25 0 00.34 0l3.15-4.13a.23.23 0 000-.33"></path>
    <path d="M11.24 11.39a.24.24 0 00-.24.24v3.13a.24.24 0 10.47 0v-3.13a.23.23 0 00-.23-.24"></path>
  </symbol>
  <symbol xmlns="http://www.w3.org/2000/svg" viewBox="0 0 20.94 18.98" id="comment">
    <path d="M18.11 0H2.83A2.83 2.83 0 000 2.83v9.79a2.83 2.83 0 002.83 2.83h9.94l5.12 3.44a.56.56 0 00.31.09.54.54 0 00.25-.06.55.55 0 00.29-.48v-3.26c1-.42 2.2-1.34 2.2-2.56V2.83A2.83 2.83 0 0018.11 0m1.74 12.62c0 .64-1 1.39-1.82 1.66a.54.54 0 00-.38.52v2.61l-4.41-3a.56.56 0 00-.31-.09H2.83a1.74 1.74 0 01-1.74-1.74V2.83a1.74 1.74 0 011.74-1.74h15.28a1.74 1.74 0 011.74 1.74z"></path>
    <path d="M16.9 3.64H4A1 1 0 004 5.7h12.9a1 1 0 000-2.06m0 1.4H4a.37.37 0 01-.37-.37A.36.36 0 014 4.3h12.9a.37.37 0 01.37.37.38.38 0 01-.37.33m0 1.65H4a1 1 0 000 2.06h12.9a1 1 0 000-2.06m0 1.4H4a.36.36 0 01-.37-.37.37.37 0 01.37-.37h12.9a.38.38 0 01.37.37.37.37 0 01-.37.37m0 1.51H4a1 1 0 000 2.06h12.9a1 1 0 000-2.06m0 1.4H4a.37.37 0 01-.37-.37.36.36 0 01.37-.37h12.9a.37.37 0 01.37.37.38.38 0 01-.37.37"></path>
  </symbol>
  <symbol xmlns="http://www.w3.org/2000/svg" viewBox="0 0 19.88 21.39" id="doing">
    <path d="M0 16v4.68a.75.75 0 00.74.75h18.4a.75.75 0 00.74-.75V16a.74.74 0 00-.74-.74h-1.82a.74.74 0 00-.74.74v2.13H3.29V16a.74.74 0 00-.74-.74H.74A.74.74 0 000 16m.9.16h1.5v2.42a.45.45 0 00.45.44H17a.45.45 0 00.45-.44v-2.46H19v4.37H.9zM7.1 3.12h5.68a.79.79 0 00.79-.79V.79a.79.79 0 00-.79-.79H7.1a.79.79 0 00-.79.79v1.54a.79.79 0 00.79.79M7.2.89h5.47v1.34H7.2z"></path>
    <path d="M6.26 7.38h-2.9A1.13 1.13 0 002.3 8a.79.79 0 00.13.85l3.29 3.85L9 16.52a1.23 1.23 0 00.93.38 1.23 1.23 0 00.93-.38l6.58-7.71a.79.79 0 00.14-.81 1.13 1.13 0 00-1.06-.58h-3V4.64a.74.74 0 00-.74-.74H7a.74.74 0 00-.74.74zm.45.89a.45.45 0 00.45-.45v-3h5.46v3a.45.45 0 00.45.45h3.45a.66.66 0 01.18 0l-6.51 7.64a.39.39 0 01-.25.07.39.39 0 01-.25-.07L6.4 12.08 3.18 8.3a.66.66 0 01.18 0z"></path>
  </symbol>
  <symbol xmlns="http://www.w3.org/2000/svg" viewBox="0 0 23.73 21.57" id="email">
    <path d="M7.1 6.73h9.23a.32.32 0 000-.63H7.1a.32.32 0 100 .63m9.54 2.46a.31.31 0 00-.31-.32H7.1a.32.32 0 100 .63h9.23a.31.31 0 00.31-.31"></path>
    <path d="M23.53 8.41l-3.89-2.84v-.69a2.55 2.55 0 00-2.59-2.49h-1.76L12.14.09a.48.48 0 00-.56 0l-3.14 2.3H6.68a2.55 2.55 0 00-2.59 2.49v.69L.19 8.41a.47.47 0 00-.19.38v11.92a.46.46 0 00.05.2.45.45 0 000 .34.45.45 0 00.44.32h22.76a.47.47 0 00.45-.32.44.44 0 000-.34.46.46 0 00.05-.2V8.79a.51.51 0 00-.2-.38m-3.91-1.67l2.82 2.06-2.72 2.1-.1.08zm-7.78-5.68l1.82 1.33H10zM5 4.88a1.59 1.59 0 011.68-1.54h10.37a1.6 1.6 0 011.64 1.54v6.78L15 14.37a.37.37 0 00-.18.08l-2.9 2.18-3-2.19L5 11.66zM4 6.74v4.15L1.27 8.8zM1 9.86l6.83 5L1 19.78zm.91 10.77l6.73-5.21 3 2.19a.48.48 0 00.56 0l2.89-2.18 6.79 5.21zm20.92-.85l-6.83-5 6.83-5z"></path>
  </symbol>
  <symbol xmlns="http://www.w3.org/2000/svg" viewBox="0 0 24.44 18.34" id="folder">
    <path d="M11.57 3.33L9.61.27a.6.6 0 00-.5-.27H.59A.58.58 0 000 .59v17.17a.58.58 0 00.59.58h20.52a.59.59 0 00.59-.58v-7.33a4.11 4.11 0 10-3.92-7.1zM23.5 6.55a3.18 3.18 0 11-3.18-3.17 3.19 3.19 0 013.18 3.17M1.18 17.17v-16h7.61l2 3.06a.58.58 0 00.49.27h5.51a4 4 0 00-.55 2 4.12 4.12 0 004.11 4.12h.2v6.51z"></path>
    <path d="M19.53 7.47L19 6.88a.35.35 0 10-.53.46l.73.86a.33.33 0 00.25.12.36.36 0 00.24-.09l2.76-2.45a.36.36 0 000-.5.35.35 0 00-.5 0z"></path>
  </symbol>
  <symbol xmlns="http://www.w3.org/2000/svg" viewBox="0 0 13.65 22.7" id="location">
    <path d="M13.45 8.44A6.82 6.82 0 100 6.82a7.39 7.39 0 00.19 1.62 10.67 10.67 0 00.75 2.65c.67 1.41 3.49 6.06 4.79 8.17-1.76.23-2.57 1-2.57 1.69s1.15 1.75 3.66 1.75 3.66-.91 3.66-1.75-.81-1.46-2.56-1.69c1.3-2.11 4.12-6.76 4.79-8.17a10.29 10.29 0 00.74-2.65M9.43 21c-.07.2-.95.7-2.61.7s-2.55-.56-2.61-.7.77-.61 2.13-.69a.09.09 0 010 .05.53.53 0 00.45.25.52.52 0 00.45-.25v-.05c1.35.08 2.06.5 2.13.68M1.89 10.64a9.47 9.47 0 01-.66-2.4 5.77 5.77 0 1111.36-1.42 5.32 5.32 0 01-.17 1.38 9.52 9.52 0 01-.65 2.4C11.08 12.06 8 17.13 6.82 19c-1.16-1.91-4.25-7-4.93-8.4"></path>
    <path d="M6.82 3a3.67 3.67 0 103.66 3.67A3.67 3.67 0 006.82 3m-2.6 3.63a2.61 2.61 0 112.6 2.6 2.61 2.61 0 01-2.6-2.6"></path>
  </symbol>
  <symbol xmlns="http://www.w3.org/2000/svg" viewBox="0 0 143.15 37.1" id="logo-color">
    <path d="M25.33 35.73a5.29 5.29 0 00-.67-.18 8.62 8.62 0 01-3-1.22c-1-.68-2.13-1.31-3.21-1.93a1.57 1.57 0 00-.74-.19H3.26a1.15 1.15 0 01-1.19-.64 2.26 2.26 0 01-.1-.78C2 22.4 2 14 2 5.61 2 4.06 2.44 4 3.54 4.05h19.52c.85 0 1.14.29 1.14 1.15v13.06a1.38 1.38 0 00.33.95c.54.63.52.63 1.33.4a.34.34 0 00.29-.4V3.08A3 3 0 0023.07 0H3a3 3 0 00-3 3.07v30.74a3.05 3.05 0 00.11.85 2.85 2.85 0 003 2.12H23.4a2.85 2.85 0 001.93-1"></path>
    <path d="M18.66 27.5c-1.21 0-2 .23-2.47 1.12a.84.84 0 00.46 1.29 25.44 25.44 0 015.17 2.7 8.3 8.3 0 002.59 1.3 17.1 17.1 0 016.32 2.79 2.15 2.15 0 002.59-.06c1.65-1.3 3.28-2.63 4.91-4a1.1 1.1 0 00.29-1.54c-.22-.42-.45-.85-.65-1.28a13 13 0 01-.8-2.72A22.12 22.12 0 0035 21.74a1.33 1.33 0 00-1-.74 17.94 17.94 0 00-9.11.48.38.38 0 01-.49-.13c-.62-.8-1.25-1.59-1.88-2.38-.89-1.11-1.77-2.24-2.68-3.35a1.36 1.36 0 00-1.64-.33 1.31 1.31 0 00-.5 2q2.49 4.51 5 9a3.48 3.48 0 01.54 2c-.05.56-.34.76-.86.55s-1.12-.48-1.68-.73a5.64 5.64 0 00-2.05-.65m-3.12-8.99v-6.78c0-.51-.17-.69-.69-.69h-3.06c-.44 0-.61.17-.61.62v13.59c0 .44.17.62.61.63h3.21c.41 0 .54-.17.54-.59z"></path>
    <path d="M25.33 35.73a2.85 2.85 0 01-1.93 1H3.13a2.85 2.85 0 01-3-2.12 3.05 3.05 0 01-.13-.8V3.07A3 3 0 013 0h20a3 3 0 013.07 3.07v16.14a.34.34 0 01-.29.4c-.81.23-.79.23-1.33-.4a1.38 1.38 0 01-.33-.95V5.2c0-.86-.29-1.15-1.14-1.15H3.54C2.44 4 2 4.06 2 5.61v25.18a2.26 2.26 0 00.1.78 1.15 1.15 0 001.19.64h14.44a1.57 1.57 0 01.74.19c1.08.62 2.17 1.25 3.21 1.93a8.62 8.62 0 003 1.22 5.29 5.29 0 01.67.18"></path>
    <path d="M15.53 18.47v6.78c0 .42-.13.58-.54.59h-3.21c-.44 0-.61-.19-.61-.63V11.62c0-.45.17-.62.61-.62h3.06c.52 0 .69.18.69.69v6.78z" fill="#45b649"></path>
    <path d="M5.7 21.73v-3.42c0-.53.14-.66.67-.67h3.06c.5 0 .66.15.66.65v6.85c0 .56-.16.7-.71.71h-3c-.54 0-.68-.15-.68-.69v-3.43" fill="#fcb116"></path>
    <path d="M38.11 8.68a4 4 0 00-1.78-.38 3.73 3.73 0 00-2 .5 3.41 3.41 0 00-1.31 1.4 4.59 4.59 0 00-.47 2.11 4.32 4.32 0 00.48 2.06 3.45 3.45 0 001.33 1.4 3.89 3.89 0 002 .5 4 4 0 002-.45 3.8 3.8 0 001.4-1.39L41.44 16a5.4 5.4 0 01-2.19 1.81 7.1 7.1 0 01-3 .61 6.7 6.7 0 01-3.29-.79 5.64 5.64 0 01-2.24-2.2 6.25 6.25 0 01-.78-3.18 6.12 6.12 0 01.81-3.16A5.47 5.47 0 0133 6.94a7 7 0 013.33-.77 6.08 6.08 0 014.75 1.92l-1.64 1.64a3.46 3.46 0 00-1.33-1.05m6.72 8.96a5.52 5.52 0 01-2.24-2.15 6.36 6.36 0 01-.8-3.2 6.36 6.36 0 01.8-3.2 5.52 5.52 0 012.24-2.15 7.48 7.48 0 016.61 0 5.63 5.63 0 012.23 2.15 6.35 6.35 0 01.79 3.2 6.35 6.35 0 01-.79 3.2 5.63 5.63 0 01-2.23 2.15 7.48 7.48 0 01-6.61 0M50 15.77a3.45 3.45 0 001.3-1.4 4.49 4.49 0 00.47-2.08 4.49 4.49 0 00-.47-2.08A3.35 3.35 0 0050 8.8a3.56 3.56 0 00-1.91-.5 3.61 3.61 0 00-1.91.5 3.35 3.35 0 00-1.3 1.41 4.61 4.61 0 00-.46 2.08 4.61 4.61 0 00.46 2.08 3.45 3.45 0 001.3 1.4 3.7 3.7 0 001.91.5 3.65 3.65 0 001.91-.5m8.66-5.07l.05 7.55h-2.59V6.33h1.61l7.28 7.55-.07-7.55h2.58v11.92h-1.59l-7.27-7.55zm13.67 7.55V8.46h-3.57V6.33h9.72v2.13h-3.57v9.79h-2.58zm6.14-.32A1.6 1.6 0 0178 16.8a1.6 1.6 0 013.19 0 1.58 1.58 0 01-.46 1.13 1.57 1.57 0 01-2.26 0M82.6 10a4.65 4.65 0 01.93-1.92 4.42 4.42 0 011.8-1.28 9 9 0 015.73 0 4.56 4.56 0 011.8 1.28 4.91 4.91 0 01.93 1.92 10.59 10.59 0 01.26 2.38 10.38 10.38 0 01-.26 2.35 4.78 4.78 0 01-.93 1.92 4.6 4.6 0 01-1.8 1.3 9 9 0 01-5.73 0 4.46 4.46 0 01-1.8-1.3 4.53 4.53 0 01-.93-1.92 9.83 9.83 0 01-.27-2.35A10 10 0 0182.6 10m3.85-1.4a2.39 2.39 0 00-1 .92 3.33 3.33 0 00-.45 1.32 11.68 11.68 0 000 3.05 3.27 3.27 0 00.44 1.32 2.39 2.39 0 001 .92 4.55 4.55 0 003.5 0 2.56 2.56 0 001-.92 3.61 3.61 0 00.44-1.32 13 13 0 000-3.05 3.67 3.67 0 00-.44-1.32 2.56 2.56 0 00-1-.92 4.55 4.55 0 00-3.5 0m9.2 9.65V6.48h3.16l4.73 8.61h.06V6.48h2.48v11.77h-3.16l-4.73-8.62h-.06v8.62h-2.48zm14.67-.25a3.3 3.3 0 01-1.29-.73 3.38 3.38 0 01-.89-1.31 5.59 5.59 0 01-.32-2V6.48h2.48v7.34a2.78 2.78 0 00.16 1 2.23 2.23 0 00.48.76 2.1 2.1 0 00.76.5 2.48 2.48 0 001 .19h3.23v2h-4.08a5.23 5.23 0 01-1.55-.23m7.09-11.56h2.48v11.76h-2.48zm4.22 11.77V6.48h3.16l4.73 8.61h.06V6.48h2.48v11.77h-3.16l-4.73-8.62h-.06v8.62h-2.48zm21.4-4.92h-6.62a4 4 0 00.87 2.23 2.6 2.6 0 001.94.68h4v2h-4.67a4.45 4.45 0 01-3.63-1.51 6.79 6.79 0 01-1.24-4.37 6.77 6.77 0 011.2-4.36 4.43 4.43 0 013.63-1.52h4.67v2h-4a5.12 5.12 0 00-.85.07 2 2 0 00-.84.36 2.6 2.6 0 00-.69.87 5.29 5.29 0 00-.43 1.6H143z"></path>
    <path d="M21.27 20v5.37c0 .32-.13.46-.54.46h-3.21c-.44 0-.61-.15-.61-.5V14.59c0-.35.17-.49.61-.5h3.07c.51 0 .68.15.68.56v5.36z" fill="#ed1d24"></path>
    <path d="M18.66 27.5a5.64 5.64 0 012.05.65c.56.25 1.11.5 1.68.73s.81 0 .86-.55a3.48 3.48 0 00-.54-2q-2.52-4.5-5-9a1.31 1.31 0 01.5-2 1.36 1.36 0 011.64.33c.91 1.11 1.79 2.24 2.68 3.35.63.79 1.26 1.58 1.88 2.38a.38.38 0 00.49.13A17.94 17.94 0 0134 21a1.33 1.33 0 011 .76 22.12 22.12 0 012.08 5.4 13 13 0 00.8 2.72c.2.43.43.86.65 1.28a1.1 1.1 0 01-.29 1.54c-1.63 1.33-3.26 2.66-4.91 4a2.15 2.15 0 01-2.59.06 17.1 17.1 0 00-6.32-2.79 8.3 8.3 0 01-2.59-1.3 25.44 25.44 0 00-5.17-2.7.84.84 0 01-.46-1.29c.46-.89 1.26-1.12 2.47-1.12" fill="#fddfcf"></path>
    <path d="M45.92 25.77a2.6 2.6 0 001.75.63c.8 0 1.21-.3 1.22-.88s-.26-.76-.8-.86l-.82-.12a2 2 0 01-1.21-.6 1.74 1.74 0 01-.42-1.18 1.79 1.79 0 01.53-1.34 2.07 2.07 0 011.47-.52 3.42 3.42 0 012 .66l-.52.79a2.78 2.78 0 00-1.53-.49 1.18 1.18 0 00-.71.22.84.84 0 00-.31.69.7.7 0 00.21.5 1.08 1.08 0 00.66.31c.17 0 .4.07.69.1a1.93 1.93 0 011.28.65 1.84 1.84 0 01.41 1.18c0 1.22-.75 1.83-2.16 1.85a3.44 3.44 0 01-2.35-.87zM51.09 21H52v.9h-.88zm0 1.83H52v4.52h-.88zm2.96 2.56a1.1 1.1 0 00.3.83 1 1 0 00.74.29 1.31 1.31 0 001-.44l.64.56a2 2 0 01-1.58.73 2.18 2.18 0 01-.67-.1 1.37 1.37 0 01-.32-.16 1.27 1.27 0 01-.31-.2 1.67 1.67 0 01-.45-.71 2.77 2.77 0 01-.19-1.13 3.18 3.18 0 01.12-1.06 1.9 1.9 0 01.42-.72 1.46 1.46 0 01.59-.38 1.8 1.8 0 01.63-.12 1.77 1.77 0 011.27.51 1.88 1.88 0 01.54 1.4v.75zm1.85-.75a1.14 1.14 0 00-.28-.8.86.86 0 00-.65-.26.89.89 0 00-.65.26 1.23 1.23 0 00-.27.8zm2.1-1.85h.88v.48a1.46 1.46 0 011.18-.54 1.65 1.65 0 01.76.16 2.33 2.33 0 01.52.43 1.76 1.76 0 011.42-.59 1.52 1.52 0 011 .4 1.49 1.49 0 01.48 1.17v3h-.84v-2.7a1 1 0 00-.25-.72 1 1 0 00-1.31 0 .92.92 0 00-.26.72v2.7h-.88v-2.7a1 1 0 00-.26-.72.88.88 0 00-.65-.25.85.85 0 00-.65.25.93.93 0 00-.27.72v2.7H58zm7.81 0h.88v.47a1.47 1.47 0 011.13-.53 1.34 1.34 0 011.18.59 1.15 1.15 0 01.24.56 6.38 6.38 0 01.07 1.17 6.19 6.19 0 01-.07 1.15 1.15 1.15 0 01-.24.57 1.3 1.3 0 01-.48.42 1.39 1.39 0 01-.7.17 1.16 1.16 0 01-.6-.15 1.78 1.78 0 01-.53-.38v2.31h-.88zm1.74 3.67a.82.82 0 00.5-.13.68.68 0 00.26-.32 2.12 2.12 0 00.11-.45v-1.04a1.85 1.85 0 00-.11-.45.66.66 0 00-.26-.33 1 1 0 00-.5-.1.78.78 0 00-.46.12.75.75 0 00-.27.34 1.89 1.89 0 00-.11.44v.99a1.94 1.94 0 00.11.46.67.67 0 00.27.33.72.72 0 00.46.14m3.07-3.67h.88v.48a1.39 1.39 0 011.14-.54 1.35 1.35 0 01.92.35l-.64.78a.92.92 0 00-.58-.22.81.81 0 00-.58.22.92.92 0 00-.28.72v2.73h-.88zm4.15 2.6a1.06 1.06 0 00.31.83 1 1 0 00.74.29 1.31 1.31 0 001-.44l.64.56a2 2 0 01-1.58.73 2.24 2.24 0 01-.68-.1 1.59 1.59 0 01-.32-.16 1.49 1.49 0 01-.31-.2 1.89 1.89 0 01-.45-.71 3 3 0 01-.19-1.13 3.16 3.16 0 01.13-1.06 1.9 1.9 0 01.42-.72 1.4 1.4 0 01.59-.38 1.76 1.76 0 01.63-.12 1.79 1.79 0 011.27.51 1.91 1.91 0 01.54 1.4v.75zm1.86-.75a1.24 1.24 0 00-.28-.8.89.89 0 00-.65-.26.87.87 0 00-.65.26 1.24 1.24 0 00-.28.8zm6.74 2.27a.72.72 0 01-.37.34 1.92 1.92 0 01-.71.11 1.57 1.57 0 01-1.13-.4 1.39 1.39 0 010-1.92 1.42 1.42 0 011.06-.4h1.22v-.48c0-.39-.29-.59-.9-.58a1.76 1.76 0 00-.52.07.7.7 0 00-.31.28l-.71-.54a1.69 1.69 0 011.48-.66 2.27 2.27 0 011.32.32 1.33 1.33 0 01.5 1.17v3.09h-.88zm0-1.52h-1.06c-.51 0-.76.19-.76.55a.5.5 0 00.2.39.91.91 0 00.63.18 1.5 1.5 0 00.78-.14c.14-.09.21-.31.21-.65zM85.71 21h.88v5.19c0 .2.11.31.33.31h.31v.85h-.39a1.22 1.22 0 01-.8-.25 1 1 0 01-.33-.84zm7.42 5.84a1.47 1.47 0 01-1.14.52 1.28 1.28 0 01-.67-.17 1.36 1.36 0 01-.5-.42 1.15 1.15 0 01-.24-.58 6.19 6.19 0 01-.07-1.19 6.32 6.32 0 01.07-1.16 1.15 1.15 0 01.24-.56 1.34 1.34 0 011.18-.55 1.46 1.46 0 01.63.14 2.31 2.31 0 01.51.39V21H94v6.36h-.88zm-.87-3.2a.89.89 0 00-.47.1.67.67 0 00-.27.33 1.89 1.89 0 00-.11.44v1.04a2.07 2.07 0 00.11.46.7.7 0 00.27.32.8.8 0 00.47.13.82.82 0 00.5-.14A.64.64 0 0093 26a1.94 1.94 0 00.11-.46v-.99a2.12 2.12 0 00-.11-.45.73.73 0 00-.25-.33.9.9 0 00-.5-.12m3.66-2.75h1.16l-1.23 1.3h-.72zm-.56 1.89h.88v4.52h-.88zm4.59 4.12a.71.71 0 01-.38.34 1.83 1.83 0 01-.7.11 1.56 1.56 0 01-1.13-.4 1.26 1.26 0 01-.41-1 1.3 1.3 0 01.36-.94 1.41 1.41 0 011.06-.4h1.22v-.48c0-.39-.29-.59-.9-.58a1.76 1.76 0 00-.52.07.7.7 0 00-.31.28l-.69-.54a1.69 1.69 0 011.46-.64 2.27 2.27 0 011.32.32 1.35 1.35 0 01.5 1.17v3.09h-.88zm0-1.52h-1.06c-.51 0-.76.19-.76.55a.5.5 0 00.2.39.91.91 0 00.63.18 1.5 1.5 0 00.78-.14c.14-.09.21-.31.21-.65z"></path>
  </symbol>
  <symbol xmlns="http://www.w3.org/2000/svg" viewBox="0 0 7.57 13.95" id="logo-fb">
    <path d="M7.08 7.95l.39-2.55H5.02V3.74a1.28 1.28 0 011.44-1.39h1.15V.18a13 13 0 00-2-.18 3.13 3.13 0 00-3.34 3.45v2H.02V8h2.25v6h2.77V8z"></path>
  </symbol>
  <symbol xmlns="http://www.w3.org/2000/svg" viewBox="0 0 13.48 13.48" id="logo-in">
    <title>logo-insta</title>
    <path d="M10.31 2.41a.79.79 0 10.79.79.79.79 0 00-.79-.79M6.79 3.42a3.32 3.32 0 103.32 3.32 3.32 3.32 0 00-3.32-3.32m0 5.45a2.13 2.13 0 112.13-2.13 2.12 2.12 0 01-2.13 2.13"></path>
    <path d="M9.44 13.48H4.06a4 4 0 01-4.05-4V4.03A4.05 4.05 0 014.06-.02h5.38a4.06 4.06 0 014 4.05v5.38a4.05 4.05 0 01-4.05 4M4.01 1.2a2.78 2.78 0 00-2.78 2.78v5.38a2.77 2.77 0 002.78 2.78h5.43a2.78 2.78 0 002.78-2.78V4.03a2.79 2.79 0 00-2.78-2.78z"></path>
  </symbol>
  <symbol xmlns="http://www.w3.org/2000/svg" viewBox="0 0 12.61 12.58" id="logo-li">
    <title>logo-in</title>
    <path d="M.21 4.18h2.61v8.45H.21zM1.52 0A1.52 1.52 0 110 1.51 1.52 1.52 0 011.52 0m2.94 4.18h2.51v1.15a2.73 2.73 0 012.48-1.36c2.64 0 3.13 1.74 3.13 4v4.66H9.97V8.54c0-1 0-2.22-1.36-2.22S7.04 7.38 7.04 8.47v4.16H4.43z"></path>
  </symbol>
  <symbol xmlns="http://www.w3.org/2000/svg" viewBox="0 0 143.16 37.1" id="logo-white">
    <title>logo-white</title>
    <path d="M25.33 35.73c-.28-.08-.47-.14-.67-.18a8.28 8.28 0 01-3-1.22c-1.05-.68-2.13-1.31-3.21-1.93a1.64 1.64 0 00-.75-.19H3.26a1.13 1.13 0 01-1.18-.64 2 2 0 01-.11-.78V5.61c0-1.55.48-1.56 1.59-1.56h19.51c.85 0 1.14.29 1.14 1.15v13.06a1.36 1.36 0 00.33 1c.54.63.53.63 1.34.4a.35.35 0 00.29-.4V3.13A3 3 0 0023.1.06h-20a2.94 2.94 0 00-3 3.06v30.74a3.05 3.05 0 00.11.85 2.83 2.83 0 003 2.13h19.77a4.1 4.1 0 00.5 0 2.87 2.87 0 001.94-1"></path>
    <path d="M18.67 27.49c-1.22 0-2 .23-2.47 1.12a.84.84 0 00.46 1.29 25.37 25.37 0 015.16 2.7 8.14 8.14 0 002.6 1.3 16.91 16.91 0 016.31 2.8 2.19 2.19 0 002.6-.06c1.64-1.31 3.28-2.64 4.91-4a1.11 1.11 0 00.29-1.54c-.23-.42-.46-.85-.66-1.28a12.44 12.44 0 01-.79-2.72 22.14 22.14 0 00-2.09-5.4 1.34 1.34 0 00-1-.76 18 18 0 00-9.12.48.37.37 0 01-.48-.13c-.62-.8-1.25-1.59-1.88-2.38-.9-1.11-1.78-2.24-2.69-3.34a1.34 1.34 0 00-1.64-.34 1.31 1.31 0 00-.5 2q2.49 4.51 5 9a3.48 3.48 0 01.54 2c-.05.56-.33.76-.85.55s-1.13-.48-1.69-.73a5.79 5.79 0 00-2-.65m-3.14-8.91v-6.77c0-.52-.18-.7-.69-.7h-3.07c-.43 0-.61.18-.61.62v13.59c0 .44.17.63.61.63h3.21c.41 0 .55-.17.55-.59v-6.78"></path>
    <path d="M25.33 35.73a2.87 2.87 0 01-1.94 1 4.1 4.1 0 01-.5 0H3.13a2.83 2.83 0 01-3-2.13 3.05 3.05 0 01-.11-.85V3.01a2.94 2.94 0 013-3.06h20a3 3 0 013.07 3.07v16.13a.35.35 0 01-.29.4c-.81.23-.8.23-1.34-.4a1.36 1.36 0 01-.33-1V5.09c0-.86-.29-1.15-1.14-1.15H3.55c-1.11 0-1.6 0-1.59 1.56v25.18a2 2 0 00.11.78 1.13 1.13 0 001.18.64h14.48a1.64 1.64 0 01.75.19c1.08.62 2.16 1.25 3.21 1.93a8.28 8.28 0 003 1.22c.2 0 .39.1.67.18"></path>
    <path d="M15.54 18.49v6.78c0 .42-.14.58-.55.59h-3.21c-.44 0-.61-.19-.61-.63V11.64c0-.44.18-.62.61-.62h3.07c.51 0 .69.18.69.7v6.77z" fill="#45b649"></path>
    <path d="M5.7 21.73v-3.42c0-.53.14-.66.67-.67h3.07c.5 0 .65.15.65.65v6.85c0 .56-.16.71-.71.71h-3c-.54 0-.69-.15-.69-.69v-3.43" fill="#fcb116"></path>
    <path d="M38.12 8.68a4.09 4.09 0 00-1.78-.38 3.82 3.82 0 00-2 .5 3.33 3.33 0 00-1.32 1.41 4.51 4.51 0 00-.46 2.1 4.32 4.32 0 00.47 2.06 3.41 3.41 0 001.34 1.4 3.82 3.82 0 001.95.5 4 4 0 002-.45 3.87 3.87 0 001.4-1.39l1.72 1.56a5.4 5.4 0 01-2.19 1.81 7.1 7.1 0 01-3 .61 6.7 6.7 0 01-3.29-.79 5.71 5.71 0 01-2.24-2.2 6.25 6.25 0 01-.78-3.18 6.12 6.12 0 01.81-3.16A5.59 5.59 0 0133 6.94a7.06 7.06 0 013.34-.77 6.06 6.06 0 014.74 1.92l-1.61 1.64a3.43 3.43 0 00-1.32-1m6.68 8.91a5.4 5.4 0 01-2.24-2.15 6.35 6.35 0 01-.79-3.2 6.35 6.35 0 01.79-3.2 5.52 5.52 0 012.24-2.15 6.94 6.94 0 013.31-.77 6.93 6.93 0 013.3.77 5.56 5.56 0 012.23 2.15 6.36 6.36 0 01.8 3.2 6.36 6.36 0 01-.8 3.2 5.43 5.43 0 01-2.23 2.15 6.93 6.93 0 01-3.3.77 6.94 6.94 0 01-3.31-.77m5.22-1.87a3.43 3.43 0 001.29-1.4 4.49 4.49 0 00.47-2.08 4.49 4.49 0 00-.47-2.08 3.39 3.39 0 00-1.29-1.41 3.58 3.58 0 00-1.91-.5 3.62 3.62 0 00-1.92.5 3.27 3.27 0 00-1.29 1.41 4.49 4.49 0 00-.46 2.08 4.49 4.49 0 00.46 2.08 3.3 3.3 0 001.29 1.4 3.71 3.71 0 001.92.5 3.68 3.68 0 001.91-.5m8.61-5.07l.05 7.55h-2.59V6.33h1.61l7.28 7.55-.07-7.55h2.58v11.92h-1.59l-7.27-7.55zm13.67 7.55V8.46h-3.57V6.33h9.72v2.13h-3.57v9.79h-2.58zm6.15-.32A1.57 1.57 0 0178 16.8a1.53 1.53 0 01.47-1.12 1.54 1.54 0 011.13-.46 1.52 1.52 0 011.12.46 1.49 1.49 0 01.47 1.12 1.54 1.54 0 01-.46 1.13 1.49 1.49 0 01-1.13.48 1.51 1.51 0 01-1.12-.48m4.12-7.94a4.91 4.91 0 01.93-1.92 4.42 4.42 0 011.8-1.28 7.62 7.62 0 012.87-.47 7.6 7.6 0 012.86.47 4.42 4.42 0 011.8 1.28 4.91 4.91 0 01.93 1.92 10 10 0 01.26 2.38 10 10 0 01-.26 2.36 4.91 4.91 0 01-.93 1.92 4.54 4.54 0 01-1.8 1.29 7.41 7.41 0 01-2.86.47 7.43 7.43 0 01-2.87-.47 4.54 4.54 0 01-1.8-1.29 4.91 4.91 0 01-.93-1.92 10.54 10.54 0 01-.26-2.36 10.59 10.59 0 01.26-2.38m3.85-1.39a2.52 2.52 0 00-1 .92 3.55 3.55 0 00-.44 1.32 10.83 10.83 0 00-.1 1.53 10.78 10.78 0 00.1 1.52 3.43 3.43 0 00.44 1.32 2.52 2.52 0 001 .92 3.75 3.75 0 001.75.35 3.72 3.72 0 001.75-.35 2.43 2.43 0 001-.92 3.43 3.43 0 00.44-1.32 10.78 10.78 0 00.1-1.52 10.83 10.83 0 00-.1-1.53 3.55 3.55 0 00-.44-1.32 2.43 2.43 0 00-1-.92 3.72 3.72 0 00-1.75-.35 3.75 3.75 0 00-1.75.35m9.19 9.65V6.49h3.16l4.73 8.6h.06v-8.6h2.48v11.76h-3.16l-4.73-8.62h-.06v8.62h-2.48zm14.69-.23a3.41 3.41 0 01-1.29-.72 3.48 3.48 0 01-.88-1.32 5.33 5.33 0 01-.33-2V6.49h2.5v7.33a2.78 2.78 0 00.17 1 2.37 2.37 0 00.47.76 2.12 2.12 0 00.76.51 2.73 2.73 0 001 .18h3.24v2h-4.09a5.28 5.28 0 01-1.55-.23m7.05-11.55h2.48v11.76h-2.48zm4.22 11.76V6.49h3.16l4.73 8.6h.06v-8.6h2.48v11.76h-3.16l-4.73-8.62h-.06v8.62h-2.48zm21.38-4.92h-6.65a4 4 0 00.87 2.23 2.57 2.57 0 001.94.68h4v2h-4.67a4.44 4.44 0 01-3.63-1.51 6.73 6.73 0 01-1.24-4.37 6.71 6.71 0 011.24-4.37 4.41 4.41 0 013.63-1.51h4.67v2h-4a5.24 5.24 0 00-.86.07 2 2 0 00-.84.37 2.34 2.34 0 00-.68.86 5 5 0 00-.43 1.6h6.62z"></path>
    <path d="M21.33 20.01v5.37c0 .33-.13.46-.55.46h-3.21c-.43 0-.61-.15-.61-.5V14.59c0-.35.17-.49.6-.5h3.07c.51 0 .69.15.69.56v5.36z" fill="#ed1d24"></path>
    <path d="M18.67 27.49a5.79 5.79 0 012 .65c.56.25 1.12.51 1.69.73s.8 0 .85-.55a3.48 3.48 0 00-.54-2q-2.52-4.5-5-9a1.31 1.31 0 01.5-2 1.34 1.34 0 011.64.34c.91 1.1 1.79 2.23 2.69 3.34.63.79 1.26 1.58 1.88 2.38a.37.37 0 00.48.13 18 18 0 019.12-.48 1.34 1.34 0 011 .76 22.14 22.14 0 012.09 5.4 12.44 12.44 0 00.79 2.72c.2.43.43.86.66 1.28a1.11 1.11 0 01-.29 1.54c-1.63 1.33-3.27 2.66-4.91 4a2.19 2.19 0 01-2.6.06 16.91 16.91 0 00-6.31-2.8 8.14 8.14 0 01-2.6-1.3 25.37 25.37 0 00-5.16-2.7.84.84 0 01-.46-1.29c.45-.89 1.25-1.12 2.47-1.12" fill="#fddfcf"></path>
    <path d="M45.93 25.77a2.59 2.59 0 001.74.63c.8 0 1.21-.3 1.22-.88s-.26-.76-.8-.86l-.82-.11a2 2 0 01-1.2-.61 1.68 1.68 0 01-.43-1.18 1.76 1.76 0 01.54-1.34 2 2 0 011.47-.52 3.39 3.39 0 012 .66l-.52.79a2.77 2.77 0 00-1.52-.49 1.19 1.19 0 00-.72.22.87.87 0 00-.31.69.7.7 0 00.21.5 1.2 1.2 0 00.66.32l.69.1a1.86 1.86 0 011.28.64 1.79 1.79 0 01.41 1.18c0 1.22-.75 1.84-2.16 1.85a3.48 3.48 0 01-2.34-.87zm5.17-4.81h.88v.9h-.88zm0 1.83h.88v4.52h-.88zm2.95 2.6a1.08 1.08 0 00.3.83 1 1 0 00.75.29 1.32 1.32 0 001-.44l.63.56a2 2 0 01-1.57.73 2.2 2.2 0 01-.68-.1 1.87 1.87 0 01-.32-.15 2.11 2.11 0 01-.31-.21 1.89 1.89 0 01-.45-.71 2.74 2.74 0 01-.19-1.13 3.43 3.43 0 01.16-1.11 2 2 0 01.43-.72 1.54 1.54 0 01.58-.38 1.85 1.85 0 01.64-.12 1.84 1.84 0 011.27.51 1.87 1.87 0 01.53 1.4v.75zm1.85-.75a1.18 1.18 0 00-.27-.8.89.89 0 00-.65-.26.9.9 0 00-.66.26 1.29 1.29 0 00-.27.8zm2.09-1.85h.88v.48a1.46 1.46 0 011.18-.54 1.75 1.75 0 01.76.16 2.33 2.33 0 01.52.43 1.8 1.8 0 011.43-.59 1.51 1.51 0 011 .4 1.49 1.49 0 01.48 1.17v3h-.88v-2.7a1 1 0 00-.25-.72.88.88 0 00-.65-.25.89.89 0 00-.66.25 1 1 0 00-.26.72v2.7h-.88v-2.7a1 1 0 00-.25-.72.89.89 0 00-.66-.25.88.88 0 00-.65.25.93.93 0 00-.27.72v2.7h-.88zm7.82 0h.88v.47a1.48 1.48 0 011.13-.53 1.34 1.34 0 011.18.59 1.25 1.25 0 01.25.57 7.55 7.55 0 01.06 1.16 7.58 7.58 0 01-.06 1.15 1.25 1.25 0 01-.25.57 1.22 1.22 0 01-.48.42 1.37 1.37 0 01-.7.17 1.21 1.21 0 01-.6-.15 1.92 1.92 0 01-.53-.38v2.31h-.88zm1.75 3.67a.79.79 0 00.49-.13.68.68 0 00.26-.32 1.65 1.65 0 00.11-.45v-1.04a1.49 1.49 0 00-.11-.45.59.59 0 00-.26-.32.87.87 0 00-.49-.11.8.8 0 00-.47.12.82.82 0 00-.27.34 1.89 1.89 0 00-.1.44 4.36 4.36 0 000 .51 3.87 3.87 0 000 .48 2 2 0 00.1.46.82.82 0 00.27.34.8.8 0 00.47.13m3.06-3.67h.88v.48a1.39 1.39 0 011.14-.54 1.4 1.4 0 01.92.35l-.64.78a.92.92 0 00-.58-.22.82.82 0 00-.58.22.92.92 0 00-.28.72v2.73h-.88zm4.16 2.6a1.08 1.08 0 00.3.83 1 1 0 00.74.29 1.31 1.31 0 001-.44l.64.56a2 2 0 01-1.58.73 2.18 2.18 0 01-.67-.1 1.87 1.87 0 01-.32-.15 1.69 1.69 0 01-.31-.21 1.67 1.67 0 01-.45-.71 2.74 2.74 0 01-.19-1.13 3.18 3.18 0 01.16-1.11 2 2 0 01.42-.72 1.57 1.57 0 01.59-.38 1.76 1.76 0 01.63-.12 1.82 1.82 0 011.27.51 1.88 1.88 0 01.54 1.4v.75zm1.85-.75a1.14 1.14 0 00-.28-.8.86.86 0 00-.65-.26.89.89 0 00-.65.26 1.23 1.23 0 00-.27.8zm6.75 2.27a.75.75 0 01-.38.34 1.68 1.68 0 01-.7.11 1.54 1.54 0 01-1.13-.4 1.26 1.26 0 01-.42-1 1.3 1.3 0 01.36-.94 1.43 1.43 0 011.07-.4h1.22v-.47c0-.4-.3-.6-.9-.59a1.71 1.71 0 00-.52.07.65.65 0 00-.31.28l-.7-.54a1.7 1.7 0 011.48-.66 2.27 2.27 0 011.32.32 1.33 1.33 0 01.5 1.17v3.09h-.87zm0-1.52h-1.05c-.51 0-.77.2-.76.55a.47.47 0 00.2.39.88.88 0 00.63.18 1.4 1.4 0 00.78-.14c.14-.09.21-.31.21-.65zm2.34-4.43h.87v5.19c0 .2.12.31.34.31h.3v.85h-.39a1.23 1.23 0 01-.8-.25 1 1 0 01-.32-.84zm7.41 5.88a1.46 1.46 0 01-1.13.52 1.32 1.32 0 01-.68-.17 1.33 1.33 0 01-.49-.42 1.07 1.07 0 01-.24-.58 6 6 0 01-.08-1.15 6.1 6.1 0 01.08-1.16 1.07 1.07 0 01.24-.56 1.31 1.31 0 011.17-.59 1.44 1.44 0 01.62.14 2.31 2.31 0 01.51.39v-2.3h.88v6.35h-.88zm-.86-3.2a.81.81 0 00-.48.11.66.66 0 00-.27.32 2 2 0 00-.1.45 4.41 4.41 0 000 .52 4.24 4.24 0 000 .51 2.07 2.07 0 00.1.46.76.76 0 00.27.32.74.74 0 00.48.13.86.86 0 00.49-.13.65.65 0 00.25-.34 1.55 1.55 0 00.11-.46v-.99a1.5 1.5 0 00-.11-.44.65.65 0 00-.25-.34.87.87 0 00-.49-.12m3.64-2.74h1.16l-1.23 1.3h-.72zm-.56 1.89h.88v4.52h-.9zm4.59 4.12a.75.75 0 01-.38.34 1.68 1.68 0 01-.7.11 1.54 1.54 0 01-1.13-.4 1.26 1.26 0 01-.42-1 1.3 1.3 0 01.36-.94 1.43 1.43 0 011.07-.4h1.21v-.47c0-.4-.29-.6-.89-.59a1.71 1.71 0 00-.52.07.67.67 0 00-.32.28l-.69-.54a1.7 1.7 0 011.48-.66 2.27 2.27 0 011.32.32 1.33 1.33 0 01.5 1.17v3.09h-.88zm0-1.52h-1.05c-.52 0-.77.2-.76.55a.47.47 0 00.2.39.88.88 0 00.63.18 1.42 1.42 0 00.78-.14c.14-.09.2-.31.2-.65z"></path>
  </symbol>
  <symbol xmlns="http://www.w3.org/2000/svg" viewBox="0 0 29.54 25.38" id="machine">
    <path d="M14.89 14.39a.58.58 0 00-.41.09.52.52 0 00-.23.35l-.46 2.41a.54.54 0 00.43.64l.93.18a7 7 0 00.31 1.5l-.78.53a.52.52 0 00-.23.35.54.54 0 00.08.41l1.38 2a.59.59 0 00.35.23.53.53 0 00.41-.08l.79-.54a6 6 0 001.28.84l-.18.94a.54.54 0 00.43.63l2.42.47h.1a.56.56 0 00.54-.45l.17-.93a6.46 6.46 0 001.5-.31l.54.78a.5.5 0 00.35.23.51.51 0 00.4-.08l2-1.38a.55.55 0 00.14-.76l-.53-.79a6.43 6.43 0 00.84-1.28l.93.18a.55.55 0 00.64-.43l.46-2.42a.54.54 0 00-.08-.41.53.53 0 00-.35-.22l-.94-.18a6 6 0 00-.31-1.5l.79-.53a.55.55 0 00.14-.76l-1.38-2a.54.54 0 00-.35-.23.6.6 0 00-.41.09l-.78.53a6.43 6.43 0 00-1.28-.84l.18-.93a.55.55 0 00-.44-.64l-2.41-.46a.51.51 0 00-.41.09.54.54 0 00-.23.34l-.18.94a6 6 0 00-1.5.31l-.53-.79a.56.56 0 00-.35-.23.6.6 0 00-.41.09l-2 1.38a.56.56 0 00-.23.35.54.54 0 00.08.41l.54.78a6.73 6.73 0 00-.84 1.28zm1.75 1a5.37 5.37 0 011.1-1.68.54.54 0 00.06-.71l-.46-.68 1.12-.77.47.69a.55.55 0 00.66.19 5.54 5.54 0 012-.4.55.55 0 00.53-.45l.15-.81 1.34.25-.15.82a.53.53 0 00.32.6 5.4 5.4 0 011.68 1.11.56.56 0 00.69.06l.69-.47.76 1.13-.68.47a.54.54 0 00-.2.66 5.54 5.54 0 01.41 2 .55.55 0 00.44.53l.82.16-.26 1.34-.82-.16a.54.54 0 00-.6.33 5.34 5.34 0 01-1.11 1.68.54.54 0 00-.06.68l.47.69-1.13.77-.46-.69a.56.56 0 00-.66-.2 5.38 5.38 0 01-2 .41.55.55 0 00-.53.44l-.15.82-1.35-.26.16-.81a.55.55 0 00-.33-.61 5.45 5.45 0 01-1.67-1.1.55.55 0 00-.69-.06l-.69.47-.77-1.13.69-.47a.54.54 0 00.2-.66 5.34 5.34 0 01-.41-2 .53.53 0 00-.44-.52l-.78-.14.26-1.34.81.16a.56.56 0 00.61-.33"></path>
    <path d="M20.92 21.35a3.78 3.78 0 00.74.07 3.92 3.92 0 00.73-7.78 3.93 3.93 0 00-4.59 3.12 3.93 3.93 0 003.12 4.59m-2-4.39a2.83 2.83 0 012.77-2.3 2.47 2.47 0 01.54.05 2.83 2.83 0 01-1.06 5.57 2.88 2.88 0 01-1.82-1.19 2.81 2.81 0 01-.47-2.09M.35 10.2a.56.56 0 00.62.47l.94-.14a6.74 6.74 0 00.78 1.32l-.57.76A.56.56 0 002 13a.56.56 0 00.21.36l2 1.47a.54.54 0 00.79-.1l.54-.73a5.75 5.75 0 001.46.35l.13.94a.51.51 0 00.22.36.54.54 0 00.32.11h.08l2.43-.35a.56.56 0 00.47-.62l-.14-.94a6.74 6.74 0 001.32-.78l.76.57a.54.54 0 00.76-.11l1.48-2a.54.54 0 00-.11-.76l-.72-.54a6.93 6.93 0 00.38-1.49l.93-.13a.53.53 0 00.36-.21.56.56 0 00.09-.4l-.35-2.43a.54.54 0 00-.62-.46l-.94.13a6.74 6.74 0 00-.78-1.32l.57-.76a.52.52 0 00.1-.4.58.58 0 00-.21-.36l-2-1.47a.52.52 0 00-.4-.11.51.51 0 00-.33.18l-.57.76a6 6 0 00-1.48-.38L8.61.47A.54.54 0 008 0L5.56.35a.55.55 0 00-.36.22.52.52 0 00-.1.4l.13.94a6.39 6.39 0 00-1.31.78l-.76-.57A.6.6 0 002.75 2a.58.58 0 00-.36.21L.92 4.2A.54.54 0 001 5l.76.56A6.4 6.4 0 001.41 7l-.94.13a.55.55 0 00-.36.22.52.52 0 00-.1.4zM3.6 3.82a.54.54 0 00.69 0A5.34 5.34 0 016 2.77a.54.54 0 00.35-.59l-.11-.82 1.35-.2.13.84a.54.54 0 00.51.46 5.56 5.56 0 011.95.5.55.55 0 00.67-.17l.49-.66 1.1.82-.5.66a.54.54 0 000 .69A5.17 5.17 0 0113 6a.55.55 0 00.59.35l.82-.11.2 1.35-.82.11a.55.55 0 00-.47.51 5.35 5.35 0 01-.5 1.95.53.53 0 00.17.66l.66.5-.81 1.1-.67-.5a.54.54 0 00-.69 0 5.34 5.34 0 01-1.73 1 .54.54 0 00-.35.59l.12.82-1.35.2-.17-.75a.54.54 0 00-.51-.47 5.45 5.45 0 01-1.94-.5.52.52 0 00-.24-.05.54.54 0 00-.43.22l-.5.66-1.09-.82.5-.66a.56.56 0 000-.69 5.34 5.34 0 01-1-1.73.54.54 0 00-.59-.35l-.82.12-.2-1.35L2 8a.54.54 0 00.46-.51A5.67 5.67 0 013 5.59a.55.55 0 00-.16-.67l-.67-.5.82-1.09z"></path>
    <path d="M7.88 11.81a5.46 5.46 0 00.56 0 3.93 3.93 0 10-.56 0m2.81-4.33a2.83 2.83 0 11-3.21-2.4 2.69 2.69 0 01.4 0 2.85 2.85 0 012.81 2.43"></path>
  </symbol>
  <symbol xmlns="http://www.w3.org/2000/svg" viewBox="0 0 28.54 21.96" id="note">
    <path d="M3.79 7.52H15.6a.35.35 0 000-.7H3.79a.35.35 0 100 .7m11.81 8.97H3.79a.35.35 0 000 .7H15.6a.35.35 0 000-.7"></path>
    <path d="M27.9.8a2.06 2.06 0 00-1.52-.7 2.27 2.27 0 00-1.48.63l-4.55 4.55a.36.36 0 00-.11.25.29.29 0 000 .09l-.24.27-.13-.12-.48.48V0H0v22h19.38v-9.7l3.49-3.49-.13-.12.26-.31h.09a.35.35 0 00.25-.1l4.5-4.48a2.42 2.42 0 00.7-1.54A2 2 0 0027.9.8M18.68 13v8.3H.7V.7h18V7l-3.91 3.91.28.29-.1.54H3.79a.36.36 0 00-.36.35.35.35 0 00.36.35h11l-.29 1.72 3-.51.27.27.91-.91.35-.35zm-3.23.81l-.66.12.12-.71.15.15.33-1.89 1.85 1.84-1.9.33zm2.32-.89l-2-2 4.1-4.1 2 2zm4.6-4.35l-2.26-2.3.23-.27 2.26 2.29zm5-5.24L23.1 7.54l-2-2 4.3-4.32a1.56 1.56 0 011-.42 1.38 1.38 0 011 .47 1.34 1.34 0 01.45 1 1.64 1.64 0 01-.49 1"></path>
    <path d="M20.33 4.38a.3.3 0 00.44 0L24 1.15a.3.3 0 000-.43.31.31 0 00-.44 0l-3.23 3.22a.31.31 0 000 .44z"></path>
  </symbol>
  <symbol xmlns="http://www.w3.org/2000/svg" viewBox="0 0 18.24 22.17" id="page">
    <path d="M13.33 22.05a.39.39 0 00.29-.11l4.43-4.17a.42.42 0 00.12-.3.45.45 0 00.07-.25V1.75A1.74 1.74 0 0016.5 0H1.75A1.75 1.75 0 000 1.75v18.67a1.75 1.75 0 001.75 1.75H13a.48.48 0 00.31-.12m.42-1.37v-1.6a1.2 1.2 0 011.2-1.2h1.77zm-1.21.52H1.75a.78.78 0 01-.75-.78V1.75A.78.78 0 011.75 1H16.5a.77.77 0 01.77.78v15H15a2.48 2.48 0 00-2.47 2.47z"></path>
    <path d="M3.78 6.45h10.69A.49.49 0 0015 6v-.9a.49.49 0 00-.48-.49H3.78a.49.49 0 00-.49.49V6a.49.49 0 00.49.48m.1-1.26h10.49v.68H3.88zm-.1 4.27h10.69A.48.48 0 0015 9v-.86a.49.49 0 00-.48-.49H3.78a.49.49 0 00-.49.49V9a.48.48 0 00.49.48m.1-1.25h10.49v.67H3.88zM15 12.05v-.87a.48.48 0 00-.48-.48H3.78a.48.48 0 00-.49.48v.87a.49.49 0 00.49.49h10.69a.49.49 0 00.48-.49m-.58-.1H3.88v-.67h10.49z"></path>
  </symbol>
  <symbol xmlns="http://www.w3.org/2000/svg" fill-rule="evenodd" clip-rule="evenodd" stroke-linejoin="round" stroke-miterlimit="2" viewBox="0 0 52 33" id="plane">
    <path d="M-.003 11.539l16.099 7.765L51.378.008l-51.38 11.53z" fill="#fafbfb" fill-rule="nonzero"></path>
    <path d="M36.232 32.061L51.382.013l-30.3 21.923 15.15 10.125z" fill="#f5f5f5" fill-rule="nonzero"></path>
    <path d="M21.082 21.933l-4.642 8.374 7.538-6.438-2.896-1.936z" fill="#e1e1e0" fill-rule="nonzero"></path>
  </symbol>
  <symbol xmlns="http://www.w3.org/2000/svg" viewBox="0 0 24.43 22.62" id="puzzle">
    <path d="M22.8 4.19a.83.83 0 00-.08-.12.65.65 0 00-.63-.19.67.67 0 00-.48.48 1.07 1.07 0 01-.31.52 1.09 1.09 0 01-1.13.24 1.23 1.23 0 01-.78-1 .11.11 0 010-.08 1.22 1.22 0 01.95-1 .64.64 0 00.5-.44.63.63 0 00-.14-.63L19.11.2a.65.65 0 00-.33-.2h-.1a.59.59 0 00-.42.17l-1.51 1.37a1.68 1.68 0 00-.36-.54 1.92 1.92 0 00-2.68-.13 1.91 1.91 0 00-.09 2.67 2 2 0 00.52.4l-1.48 1.39-.07.08a.59.59 0 00-.13.33.17.17 0 000 .1.67.67 0 00.16.34l1.56 1.71a.64.64 0 00.62.19.69.69 0 00.48-.47 1.19 1.19 0 011.08-.86h.08a1.24 1.24 0 011 .87 1.1 1.1 0 01-.32 1.1 1.09 1.09 0 01-.56.27.67.67 0 00-.51.44.65.65 0 00.14.64l.11.08 1.49 1.59a.61.61 0 00.39.21h.11a.44.44 0 00.21-.07.38.38 0 00.13-.09l1.63-1.48v-.06a.64.64 0 00-.28-1A1.26 1.26 0 0119.6 9a1.13 1.13 0 01-.28-.82 1.07 1.07 0 01.4-.78 1.15 1.15 0 01.8-.34 1.11 1.11 0 01.8.36 1 1 0 01.25.44.64.64 0 00.38.42.69.69 0 00.58-.05h.07l1.61-1.5a.67.67 0 00.18-.33.2.2 0 000-.11.62.62 0 00-.16-.41zm-.51 3.18a2.12 2.12 0 00-.35-.53 1.9 1.9 0 00-1.38-.61 2 2 0 00-1.37.56 1.87 1.87 0 00-.67 1.33A1.89 1.89 0 0019 9.54a1.73 1.73 0 00.5.39l-1.27 1.15L17 9.71a2 2 0 00.68-.39 1.93 1.93 0 00.56-1.9A2.06 2.06 0 0016.62 6a.92.92 0 00-.37 0 2 2 0 00-1.66 1.2l-1.24-1.42 1.47-1.37A.8.8 0 0015 4.2a.63.63 0 000-.52.61.61 0 00-.38-.39 1.13 1.13 0 01-.4-.29 1.1 1.1 0 010-1.54 1.1 1.1 0 011.8.52.66.66 0 00.36.41.7.7 0 00.53 0 .57.57 0 00.21-.13L18.65.89l1.26 1.35a2 2 0 00-1.32 1.56 1.15 1.15 0 000 .37 2.06 2.06 0 001.32 1.69 1.92 1.92 0 001.94-.41 2.06 2.06 0 00.45-.64l1.24 1.39zM2.58 22a.64.64 0 00.65.64h7.53a.53.53 0 00.25.05h2.4a.64.64 0 00.45-.35.61.61 0 000-.57 1.24 1.24 0 01.14-1.38l.05-.06a1.45 1.45 0 01.79-.26 1.12 1.12 0 011 1.6.64.64 0 00.45.91h2.28a.64.64 0 00.46-.19.63.63 0 00.19-.46v-2.3a.65.65 0 00-.65-.65.66.66 0 00-.36.11 1.21 1.21 0 01-.6.18 1.11 1.11 0 01-1-.6 1.23 1.23 0 01.14-1.3.12.12 0 010-.05 1.41 1.41 0 01.8-.28 1.09 1.09 0 01.58.17.67.67 0 00.81-.08.62.62 0 00.19-.46v-2.31a.66.66 0 00-.66-.64h-2a1.89 1.89 0 00.1-.63 1.91 1.91 0 00-1.91-1.9 2.25 2.25 0 00-1.24.4 1.32 1.32 0 00.16-.25 2 2 0 00-.19-2.13A1 1 0 0013.2 9a2.1 2.1 0 00-1.87-.3v-2a.65.65 0 00-.67-.7h-2a2 2 0 00-.31-1.89 1.07 1.07 0 00-.26-.26 2.22 2.22 0 00-1.23-.4 1.9 1.9 0 00-1.36.56A1.94 1.94 0 005 5.43a1.82 1.82 0 00.12.65h-2a.64.64 0 00-.46.19.66.66 0 00-.19.46v2.32a.25.25 0 000 .08.63.63 0 00.63.51.59.59 0 00.29-.07 1.23 1.23 0 011.29.15 1.25 1.25 0 01.15 1.3 1.11 1.11 0 01-1 .6 1.17 1.17 0 01-.49-.11.58.58 0 00-.28-.07.65.65 0 00-.64.52v2.29a.35.35 0 000 .17v1.98a2 2 0 00-1.89.31A1.07 1.07 0 00.4 17a2 2 0 00-.18 2.1 1.93 1.93 0 001.7 1 2.41 2.41 0 00.65-.1zm11.15-7.74a.67.67 0 000-.63 1.19 1.19 0 01.14-1.28l.06-.06a1.37 1.37 0 01.79-.27 1.12 1.12 0 011.11 1.1 1.06 1.06 0 01-.12.5.62.62 0 000 .62.64.64 0 00.56.31h2.05v1.89a2 2 0 00-2 .25 1 1 0 00-.27.26 2.06 2.06 0 00-.18 2.13 1.92 1.92 0 001.71 1 1.82 1.82 0 00.79-.18v1.89h-1.71a2.19 2.19 0 00.1-.63 1.93 1.93 0 00-1.92-1.9 2.26 2.26 0 00-1.24.41 1.15 1.15 0 00-.27.27 2.06 2.06 0 00-.33 1.87h-1.84v-2.05a.65.65 0 00-.65-.65.73.73 0 00-.29.07 1 1 0 01-.52.13 1.09 1.09 0 01-1-.59 1.24 1.24 0 01.13-1.3l.06-.05a1.21 1.21 0 011.29-.16.65.65 0 00.75-.12.62.62 0 00.19-.46v-2.06h2.05a.64.64 0 00.56-.31m-.8-.49h-1.57v-1.49a1.91 1.91 0 001.84-.35 2.07 2.07 0 00-.26 1.82m-9-1.26a1.91 1.91 0 001.69-1 2 2 0 00-.2-2.12 1 1 0 00-.26-.27 2.09 2.09 0 00-1.87-.29V6.89h2.02a.65.65 0 00.56-.32.62.62 0 000-.62 1.13 1.13 0 01-.12-.51 1.06 1.06 0 01.32-.79 1.11 1.11 0 01.79-.33 1.37 1.37 0 01.77.26l.06.06a1.23 1.23 0 01.16 1.29.62.62 0 000 .63.66.66 0 00.56.31h2.06V8.9a.66.66 0 00.65.65.73.73 0 00.29-.07 1.25 1.25 0 011.29.14l.06.06A1.24 1.24 0 0113 11a1.13 1.13 0 01-1 .6 1 1 0 01-.49-.12.66.66 0 00-.75.13.64.64 0 00-.19.46v1.87l-.1.12v.06h-2a.23.23 0 01-.25-.12.25.25 0 010-.25 1.64 1.64 0 00-.11-1.83 1.21 1.21 0 00-.11-.17 1.79 1.79 0 00-1-.33 1.52 1.52 0 00-1.51 1.52 1.45 1.45 0 00.24.81.27.27 0 010 .26.26.26 0 01-.21.12H3.34v-1.74a2.12 2.12 0 00.62.1m-2 6.82a1.12 1.12 0 01-1-.59 1.24 1.24 0 01.13-1.3l.06-.05a1.24 1.24 0 011.29-.16.64.64 0 00.63 0 .62.62 0 00.31-.55V15h2.1a1.07 1.07 0 00.91-.55 1 1 0 000-1.08.7.7 0 01-.11-.37.71.71 0 01.21-.51.81.81 0 011 0 .83.83 0 01.07.91 1 1 0 000 1.07 1 1 0 00.92.54h1.88v1.39a2.07 2.07 0 00-1.89.31 1.07 1.07 0 00-.26.26A2 2 0 008 19.1a1.91 1.91 0 001.7 1 2.41 2.41 0 00.65-.12v1.78H3.42v-2a.65.65 0 00-.94-.58 1 1 0 01-.51.13"></path>
  </symbol>
  <symbol xmlns="http://www.w3.org/2000/svg" viewBox="0 0 57.15 37.98" id="quotes">
    <title>quotes</title>
    <path d="M0 37.97C4.41 24.9 12.66 8.09 18 .97L28.74.04c-4.22 9.18-9.21 25.21-11.32 36.42zm28.58 0C32.79 24.9 41.23 8.09 46.41.97L57.15.04c-4.22 9.18-9.21 25.21-11.32 36.42z" fill="#fff"></path>
  </symbol>
  <symbol xmlns="http://www.w3.org/2000/svg" viewBox="0 0 15.78 24.49" id="talking">
    <path d="M15.78 23a5.64 5.64 0 00-1.47-3.94.41.41 0 00-.54 0 2.64 2.64 0 01-3.2 0 .42.42 0 00-.54 0 4.5 4.5 0 00-.47.52 5 5 0 00-.85-1 .42.42 0 00-.54 0 3.94 3.94 0 01-4.8 0 .44.44 0 00-.55 0 7.67 7.67 0 00-2.19 5.48.42.42 0 00.13.3.4.4 0 00.3.13h9.27a.42.42 0 00.42-.41 5.88 5.88 0 000-.64h4.63a.43.43 0 00.42-.4m-14.29.62a7.11 7.11 0 011.65-4.2 4.76 4.76 0 005.23 0 7 7 0 011.51 4.19zm9.15-1.06a8.64 8.64 0 00-.66-2.17 3 3 0 01.34-.47A3.46 3.46 0 0014 20a4.74 4.74 0 01.95 2.64zm.75-14.47H8.12v1a1 1 0 00.94.94H12l.83 1a.3.3 0 00.23.11.28.28 0 00.13 0 .32.32 0 00.19-.32l-.06-.72h1.5a.94.94 0 00.94-.94V5.46a.94.94 0 00-.94-.94h-2v2.25a1.36 1.36 0 01-1.36 1.36m1.43-1.34V5.15h2a.31.31 0 01.31.31v3.7a.31.31 0 01-.31.31H13a.33.33 0 00-.23.1.31.31 0 00-.08.24v.11l-.29-.34a.32.32 0 00-.24-.11h-3.1a.3.3 0 01-.3-.31v-1h2.7a1.39 1.39 0 001.38-1.39"></path>
    <path d="M0 6.77a1.36 1.36 0 001.36 1.36H5l-.1 1.31a.37.37 0 00.22.36h.15a.34.34 0 00.27-.13l1.37-1.54h4.5a1.36 1.36 0 001.36-1.36V1.36A1.36 1.36 0 0011.41 0h-10A1.36 1.36 0 000 1.36zm.73-5.41a.63.63 0 01.63-.63h10.05a.63.63 0 01.63.63v5.41a.63.63 0 01-.63.63H6.74a.37.37 0 00-.27.13l-.76.86v-.6a.34.34 0 00-.1-.27.32.32 0 00-.21-.12h-4a.63.63 0 01-.63-.63zm11.39 17.7a2.9 2.9 0 10-2-4.94 2.49 2.49 0 00-.43.54v-.39a4 4 0 00-4-4 4 4 0 00-4 4 4 4 0 004 4 4 4 0 002.81-1.2 4.32 4.32 0 00.72-1v.09a2.92 2.92 0 002.91 2.89m-1.46-4.35a2.06 2.06 0 111.46 3.51 2.06 2.06 0 01-1.46-3.51M7.9 16.47a3.06 3.06 0 01-2.21.92 3.12 3.12 0 01-3.12-3.12 3.12 3.12 0 013.12-3.13 3.13 3.13 0 013.13 3.13 3.1 3.1 0 01-.92 2.2"></path>
  </symbol>
  <symbol xmlns="http://www.w3.org/2000/svg" viewBox="0 0 7.86 5.7" id="tick">
    <path fill="none" stroke="#ed1d24" stroke-linecap="round" stroke-linejoin="round" stroke-width="1.5" d="M.75 2.73l2.22 2.22L7.11.75"></path>
  </symbol>
   <symbol xmlns="http://www.w3.org/2000/svg" viewBox="0 0 12.28 6.14" id="chevron">
    <title>chevron</title>
    <path d="M12.28 0L6.14 6.14 0 0"></path>
  </symbol>
   <symbol xmlns="http://www.w3.org/2000/svg" viewBox="0 0 24 24" id="menu">
    <path d="M21.5 24h-19A2.503 2.503 0 010 21.5v-19C0 1.122 1.121 0 2.5 0h19C22.879 0 24 1.122 24 2.5v19c0 1.378-1.121 2.5-2.5 2.5zM2.5 1C1.673 1 1 1.673 1 2.5v19c0 .827.673 1.5 1.5 1.5h19c.827 0 1.5-.673 1.5-1.5v-19c0-.827-.673-1.5-1.5-1.5z"></path>
    <path d="M16.5 8h-9a.5.5 0 010-1h9a.5.5 0 010 1zm0 4.5h-9a.5.5 0 010-1h9a.5.5 0 010 1zm0 4.5h-9a.5.5 0 010-1h9a.5.5 0 010 1z"></path>
  </symbol>
</svg>